<svg xmlns="http://www.w3.org/2000/svg" viewBox="0 0 280 280" fill="none" shape-rendering="auto"><metadata xmlns:rdf="http://www.w3.org/1999/02/22-rdf-syntax-ns#" xmlns:xsi="http://www.w3.org/2001/XMLSchema-instance" xmlns:dc="http://purl.org/dc/elements/1.1/" xmlns:dcterms="http://purl.org/dc/terms/"><rdf:RDF><rdf:Description><dc:title>Avataaars</dc:title><dc:creator>Pablo Stanley</dc:creator><dc:source xsi:type="dcterms:URI">https://avataaars.com/</dc:source><dcterms:license xsi:type="dcterms:URI">https://avataaars.com/</dcterms:license><dc:rights>Remix of „Avataaars” (https://avataaars.com/) by „Pablo Stanley”, licensed under „Free for personal and commercial use” (https://avataaars.com/)</dc:rights></rdf:Description></rdf:RDF></metadata><mask id="viewboxMask"><rect width="280" height="280" rx="0" ry="0" x="0" y="0" fill="#fff" /></mask><g mask="url(#viewboxMask)"><g transform="translate(8)"><path d="M132 36a56 56 0 0 0-56 56v6.17A12 12 0 0 0 66 110v14a12 12 0 0 0 10.3 11.88 56.04 56.04 0 0 0 31.7 44.73v18.4h-4a72 72 0 0 0-72 72v9h200v-9a72 72 0 0 0-72-72h-4v-18.39a56.04 56.04 0 0 0 31.7-44.73A12 12 0 0 0 198 124v-14a12 12 0 0 0-10-11.83V92a56 56 0 0 0-56-56Z" fill="#ae5d29"/><path d="M108 180.61v8a55.79 55.79 0 0 0 24 5.39c8.59 0 16.73-1.93 24-5.39v-8a55.79 55.79 0 0 1-24 5.39 55.79 55.79 0 0 1-24-5.39Z" fill="#000" fill-opacity=".1"/><g transform="translate(0 170)"><path d="M132.5 65.83c27.34 0 49.5-13.2 49.5-29.48 0-1.37-.16-2.7-.46-4.02A72.03 72.03 0 0 1 232 101.05V110H32v-8.95A72.03 72.03 0 0 1 83.53 32a18 18 0 0 0-.53 4.35c0 16.28 22.16 29.48 49.5 29.48Z" fill="#3c4f5c"/></g><g transform="translate(78 134)"><rect x="42" y="18" width="24" height="6" rx="3" fill="#000" fill-opacity=".7"/></g><g transform="translate(104 122)"><path fill-rule="evenodd" clip-rule="evenodd" d="M16 8c0 4.42 5.37 8 12 8s12-3.58 12-8" fill="#000" fill-opacity=".16"/></g><g transform="translate(76 90)"><path d="M44 22a14 14 0 1 1-28 0 14 14 0 0 1 28 0ZM96 22a14 14 0 1 1-28 0 14 14 0 0 1 28 0Z" fill="#fff"/><path d="M36 22a6 6 0 1 1-12 0 6 6 0 0 1 12 0ZM88 22a6 6 0 1 1-12 0 6 6 0 0 1 12 0Z" fill="#000" fill-opacity=".7"/></g><g transform="translate(76 82)"><path d="M38.66 11.1c-5 .35-9.92.08-14.92-.13-3.83-.16-7.72-.68-11.37 1.01-.7.32-4.53 2.28-4.44 3.35.07.85 3.93 2.2 4.63 2.44 3.67 1.29 7.18.9 10.95.66 4.64-.27 9.25-.07 13.87-.2 3.12-.1 7.92-.63 9.46-4.4.46-1.14.1-3.42-.36-4.66-.19-.5-.72-.69-1.13-.4a15.04 15.04 0 0 1-6.68 2.32ZM73.34 11.1c5 .35 9.92.08 14.92-.13 3.83-.16 7.72-.68 11.37 1.01.7.32 4.53 2.28 4.44 3.35-.07.85-3.93 2.2-4.63 2.44-3.67 1.29-7.18.9-10.95.66-4.63-.27-9.24-.07-13.86-.2-3.12-.1-7.92-.63-9.46-4.4-.46-1.14-.1-3.42.36-4.66.18-.5.72-.69 1.13-.4a15.04 15.04 0 0 0 6.68 2.32Z" fill-rule="evenodd" clip-rule="evenodd" fill="#000" fill-opacity=".6"/></g><g transform="translate(-1)"><path d="M86.67 68H64v112.91a4.09 4.09 0 0 0 4.09 4.1 18.58 18.58 0 0 0 18.58-18.6V68ZM202 68h-22.67v112.91a4.09 4.09 0 0 0 4.09 4.1A18.58 18.58 0 0 0 202 166.4V68Z" fill="#F4F4F4"/><path d="M63 64a44 44 0 0 1 44-44h52a44 44 0 0 1 44 44v104.6a16.4 16.4 0 0 1-16.4 16.4c-1.98 0-3.6-1.62-3.6-3.6V74H83v94.6A16.4 16.4 0 0 1 66.6 185c-1.99 0-3.6-1.62-3.6-3.6V64Z" fill="#ffdeb5"/><rect x="74" y="52" width="118" height="36" rx="8" fill="#000" fill-opacity=".1"/><rect x="74" y="50" width="118" height="36" rx="8" fill="#F4F4F4"/></g><g transform="translate(49 72)"></g><g transform="translate(62 42)"><g fill-rule="evenodd" clip-rule="evenodd"><path d="M111.71 53.49c4.67.16 8 .88 10.55 4.52 3.01.15 6.25.37 8.98 1.63 3.39 1.56 3.9 5.1-.36 5.59-1.86.2-3.72-.12-5.55-.45l-.19-.03-.33-.06c1.1 9.46-6.21 20.87-14.23 24.35C99.6 93.8 87.34 88.53 81.53 79c-2.62-4.3-4.14-10.51-4.46-15.86-.42-.2-.83-.44-1.23-.67-.38-.22-.76-.44-1.12-.61-2-.98-5.34-1.1-7.5 0-.35.17-.7.37-1.05.58-.42.25-.86.5-1.3.72C64.53 68.5 63.01 74.7 60.4 79c-5.8 9.53-18.07 14.8-29.05 10.04-8.02-3.48-15.33-14.89-14.23-24.35l-.33.06-.2.03c-1.83.33-3.7.66-5.55.45-4.27-.5-3.74-4.03-.36-5.6 2.72-1.25 5.96-1.47 8.97-1.62 2.55-3.63 5.88-4.36 10.55-4.52l23.29-.46c5.19-.14 9.72 0 11.03 4.6a18.7 18.7 0 0 1 6.35-1.25c1.86 0 4.35.45 6.5 1.28 1.3-4.64 5.83-4.77 11.03-4.63l23.3.46Zm-24.03 6.78c-2.37.03-3.5.42-3.9 2.9-.4 2.5 0 5.31.46 7.78.73 3.77 1.92 7.46 4.71 10.22a16.24 16.24 0 0 0 8.32 4.34c.11.03.54.1.96.16.63.1 1.23.18.71.13l-.1-.01h-.06a47.08 47.08 0 0 1 .16 0c3.73.4 7.72.32 10.82-2.04 3.53-2.7 5.95-6.95 7.01-11.2.63-2.48 1.93-8.42-.46-10.4-2.73-2.28-28.63-1.88-28.63-1.88Zm-33.43 0c2.37.03 3.5.42 3.9 2.9.4 2.5 0 5.32-.46 7.78-.73 3.77-1.92 7.46-4.71 10.22a16.23 16.23 0 0 1-8.32 4.35l-.96.15c-.64.1-1.26.19-.68.13-3.73.4-7.74.32-10.85-2.05-3.53-2.69-5.95-6.95-7.01-11.2-.63-2.48-1.93-8.42.46-10.4 2.73-2.28 28.63-1.87 28.63-1.87Zm-10.93 25.5Z" fill="#000" fill-opacity=".1"/><path d="M111.71 51.49c4.67.16 8 .88 10.55 4.52 3.01.15 6.25.37 8.98 1.63 3.39 1.56 3.9 5.1-.36 5.59-1.86.2-3.72-.12-5.55-.45l-.19-.03-.33-.06c1.1 9.46-6.21 20.87-14.23 24.35C99.6 91.8 87.34 86.53 81.53 77c-2.62-4.3-4.14-10.51-4.46-15.86-.42-.2-.83-.44-1.23-.67-.38-.22-.76-.44-1.12-.61-2-.98-5.34-1.1-7.5 0-.35.17-.7.37-1.05.58-.42.25-.86.5-1.3.72C64.53 66.5 63.01 72.7 60.4 77c-5.8 9.53-18.07 14.8-29.05 10.04-8.02-3.48-15.33-14.89-14.23-24.35-.11 0-.22.03-.33.05l-.2.03c-1.83.33-3.7.66-5.55.45-4.27-.5-3.74-4.03-.36-5.6 2.72-1.25 5.96-1.47 8.97-1.62 2.55-3.63 5.88-4.36 10.55-4.52l23.29-.46c5.19-.14 9.72 0 11.03 4.6a18.7 18.7 0 0 1 6.35-1.25c1.86 0 4.35.45 6.5 1.28 1.3-4.64 5.83-4.77 11.03-4.63l23.3.46Zm-24.03 6.78c-2.37.03-3.5.42-3.9 2.9-.4 2.5 0 5.31.46 7.78.73 3.77 1.92 7.46 4.71 10.22a16.24 16.24 0 0 0 8.32 4.34c.11.03.54.1.96.16.63.1 1.23.18.71.13l-.1-.01h-.06a47.08 47.08 0 0 1 .16 0c3.73.4 7.72.32 10.82-2.04 3.53-2.7 5.95-6.95 7.01-11.2.63-2.48 1.93-8.42-.46-10.4-2.73-2.28-28.63-1.88-28.63-1.88Zm-33.43 0c2.37.03 3.5.42 3.9 2.9.4 2.5 0 5.32-.46 7.78-.73 3.77-1.92 7.46-4.71 10.22a16.23 16.23 0 0 1-8.32 4.35l-.96.15c-.64.1-1.26.19-.68.13-3.73.4-7.74.32-10.85-2.05-3.53-2.69-5.95-6.95-7.01-11.2-.63-2.48-1.93-8.42.46-10.4 2.73-2.28 28.63-1.87 28.63-1.87Zm-10.93 25.5Z" fill="#25557c"/></g></g></g></g></svg>