<svg xmlns="http://www.w3.org/2000/svg" viewBox="0 0 280 280" fill="none" shape-rendering="auto"><metadata xmlns:rdf="http://www.w3.org/1999/02/22-rdf-syntax-ns#" xmlns:xsi="http://www.w3.org/2001/XMLSchema-instance" xmlns:dc="http://purl.org/dc/elements/1.1/" xmlns:dcterms="http://purl.org/dc/terms/"><rdf:RDF><rdf:Description><dc:title>Avataaars</dc:title><dc:creator>Pablo Stanley</dc:creator><dc:source xsi:type="dcterms:URI">https://avataaars.com/</dc:source><dcterms:license xsi:type="dcterms:URI">https://avataaars.com/</dcterms:license><dc:rights>Remix of „Avataaars” (https://avataaars.com/) by „Pablo Stanley”, licensed under „Free for personal and commercial use” (https://avataaars.com/)</dc:rights></rdf:Description></rdf:RDF></metadata><mask id="viewboxMask"><rect width="280" height="280" rx="0" ry="0" x="0" y="0" fill="#fff" /></mask><g mask="url(#viewboxMask)"><g transform="translate(8)"><path d="M132 36a56 56 0 0 0-56 56v6.17A12 12 0 0 0 66 110v14a12 12 0 0 0 10.3 11.88 56.04 56.04 0 0 0 31.7 44.73v18.4h-4a72 72 0 0 0-72 72v9h200v-9a72 72 0 0 0-72-72h-4v-18.39a56.04 56.04 0 0 0 31.7-44.73A12 12 0 0 0 198 124v-14a12 12 0 0 0-10-11.83V92a56 56 0 0 0-56-56Z" fill="#f8d25c"/><path d="M108 180.61v8a55.79 55.79 0 0 0 24 5.39c8.59 0 16.73-1.93 24-5.39v-8a55.79 55.79 0 0 1-24 5.39 55.79 55.79 0 0 1-24-5.39Z" fill="#000" fill-opacity=".1"/><g transform="translate(0 170)"><path d="M100.37 29.14a27.6 27.6 0 0 1 7.63-7.57v15.3c0 5.83 3.98 10.98 10.08 14.13l-.08.06.9 2.86c3.89 2 8.35 3.13 13.1 3.13s9.21-1.13 13.1-3.13l.9-2.86-.08-.06c6.1-3.15 10.08-8.3 10.08-14.12v-14.6a27.1 27.1 0 0 1 6.6 6.82 72 72 0 0 1 69.4 71.95V110H32v-8.95a72 72 0 0 1 68.37-71.9Z" fill="#ffafb9"/><path d="M108 21.57c-6.77 4.6-11 11.17-11 18.46 0 7.4 4.36 14.05 11.3 18.66l6.12-4.81 4.58.33-1-3.15.08-.06c-6.1-3.15-10.08-8.3-10.08-14.12v-15.3ZM156 36.88c0 5.82-3.98 10.97-10.08 14.12l.08.06-1 3.15 4.58-.33 5.65 4.45c6.63-4.6 10.77-11.1 10.77-18.3 0-6.92-3.82-13.2-10-17.75v14.6Z" fill="#fff" fill-opacity=".75"/></g><g transform="translate(78 134)"><path fill-rule="evenodd" clip-rule="evenodd" d="M40.06 27.72C40.7 20.7 46.7 16 54 16c7.34 0 13.36 4.75 13.95 11.85.03.38-.87.67-1.32.45-5.54-2.77-9.75-4.16-12.63-4.16-2.84 0-7 1.36-12.45 4.07-.5.25-1.53-.07-1.5-.49Z" fill="#000" fill-opacity=".7"/></g><g transform="translate(104 122)"><path fill-rule="evenodd" clip-rule="evenodd" d="M16 8c0 4.42 5.37 8 12 8s12-3.58 12-8" fill="#000" fill-opacity=".16"/></g><g transform="translate(76 90)"><path d="M35.96 10c-2.55 0-5.08 1.98-6.46 3.82-1.39-1.84-3.9-3.82-6.46-3.82-5.49 0-9.04 3.33-9.04 7.64 0 5.73 4.41 9.13 9.04 12.74 1.66 1.23 4.78 4.4 5.17 5.1.38.68 2.1.7 2.58 0 .48-.73 3.51-3.87 5.17-5.1 4.63-3.6 9.04-7 9.04-12.74 0-4.3-3.55-7.64-9.04-7.64ZM88.96 10c-2.55 0-5.08 1.98-6.46 3.82-1.39-1.84-3.9-3.82-6.46-3.82-5.49 0-9.04 3.33-9.04 7.64 0 5.73 4.41 9.13 9.04 12.74 1.65 1.23 4.78 4.4 5.17 5.1.38.68 2.1.7 2.58 0 .48-.73 3.51-3.87 5.17-5.1 4.63-3.6 9.04-7 9.04-12.74 0-4.3-3.55-7.64-9.04-7.64Z" fill="#FF5353" fill-opacity=".8"/></g><g transform="translate(76 82)"><path d="M15.63 17.16c3.92-5.51 14.65-8.6 23.9-6.33a2 2 0 1 0 .95-3.88c-10.74-2.64-23.17.94-28.11 7.9a2 2 0 0 0 3.26 2.3ZM96.37 17.16c-3.91-5.51-14.65-8.6-23.9-6.33a2 2 0 1 1-.95-3.88c10.74-2.64 23.17.94 28.11 7.9a2 2 0 0 1-3.26 2.3Z" fill="#000" fill-opacity=".6"/></g><g transform="translate(-1)"><path fill-rule="evenodd" clip-rule="evenodd" d="M88.18 37.86c5.14-3.84 11.22-7.12 17.56-8.38 6.45-1.28 10.36-1.6 16.7-.07 1.64.39 2.2.78 3.63-.15 1.2-.79 9.66-9.5 35.42-4.66 26.03 4.88 33.77 44.08 43.42 45.57 3.49.53 7.79-.39 7.92-2.53 3.96 6.03 5 14 3.33 21.07-1.45 6.09-4.5 11.8-10 15.14-4.72 2.87-11.25 4.12-16.71 3.59a22.36 22.36 0 0 1-7.03-1.77c-2.76-1.2-4.96-3.4-7.67-4.54a53.9 53.9 0 0 0 9.18 6.42c1.64.9 3.3 1.53 5.11 2.02 1.24.34 3.76 1.48 4.96 1.18-7.81 1.4-15.16.18-22.32-3.16a51.67 51.67 0 0 1-9.2-5.48c-2.83-2.13-6.09-4.3-8.3-7.1.93 1.2-.7-.6-.92-.81a74.07 74.07 0 0 1-4.72-5.29c-1.99-2.48-3.84-5.08-5.5-7.8-1.68-2.76-8.36-13.87-10.38-16.5a195.3 195.3 0 0 0 6.41 16.93c-4.71-1.47-9.28-5.54-12.3-9.34a29.46 29.46 0 0 1-6.1-14.66c-3.83 10.41-12.79 18.63-22.03 24.3 2-3.74 5.05-6.9 7.05-10.69-9.2 9.33-24.57 13.9-28.6 27.58-1.03-4.76-4.35-8.58-5.34-13.43-1.1-5.4-1.9-11.11-1.73-16.62.4-12.24 8.64-23.72 18.16-30.82Z" fill="#e8e1e1"/></g><g transform="translate(49 72)"></g><g transform="translate(62 42)"></g></g></g></svg>