<svg xmlns="http://www.w3.org/2000/svg" viewBox="0 0 280 280" fill="none" shape-rendering="auto"><metadata xmlns:rdf="http://www.w3.org/1999/02/22-rdf-syntax-ns#" xmlns:xsi="http://www.w3.org/2001/XMLSchema-instance" xmlns:dc="http://purl.org/dc/elements/1.1/" xmlns:dcterms="http://purl.org/dc/terms/"><rdf:RDF><rdf:Description><dc:title>Avataaars</dc:title><dc:creator>Pablo Stanley</dc:creator><dc:source xsi:type="dcterms:URI">https://avataaars.com/</dc:source><dcterms:license xsi:type="dcterms:URI">https://avataaars.com/</dcterms:license><dc:rights>Remix of „Avataaars” (https://avataaars.com/) by „Pablo Stanley”, licensed under „Free for personal and commercial use” (https://avataaars.com/)</dc:rights></rdf:Description></rdf:RDF></metadata><mask id="viewboxMask"><rect width="280" height="280" rx="0" ry="0" x="0" y="0" fill="#fff" /></mask><g mask="url(#viewboxMask)"><g transform="translate(8)"><path d="M132 36a56 56 0 0 0-56 56v6.17A12 12 0 0 0 66 110v14a12 12 0 0 0 10.3 11.88 56.04 56.04 0 0 0 31.7 44.73v18.4h-4a72 72 0 0 0-72 72v9h200v-9a72 72 0 0 0-72-72h-4v-18.39a56.04 56.04 0 0 0 31.7-44.73A12 12 0 0 0 198 124v-14a12 12 0 0 0-10-11.83V92a56 56 0 0 0-56-56Z" fill="#ffdbb4"/><path d="M108 180.61v8a55.79 55.79 0 0 0 24 5.39c8.59 0 16.73-1.93 24-5.39v-8a55.79 55.79 0 0 1-24 5.39 55.79 55.79 0 0 1-24-5.39Z" fill="#000" fill-opacity=".1"/><g transform="translate(0 170)"><path d="M132.5 54C151 54 166 44.37 166 32.5c0-1.1-.13-2.18-.38-3.23A72 72 0 0 1 232 101.05V110H32v-8.95A72 72 0 0 1 99.4 29.2a14.1 14.1 0 0 0-.4 3.3C99 44.37 114 54 132.5 54Z" fill="#3c4f5c"/><g transform="translate(77 58)"><path fill-rule="evenodd" clip-rule="evenodd" d="M65.28 19.93c-.3 2.78-5.7 4.27-7.67 2.45-.91-.84-.93-2.58-1.13-3.7a48.65 48.65 0 0 1-.75-6.43c-.06-1.32-.4-2.38 1.04-2.58.89-.12 1.8.47 2.52.93 2.44 1.58 6.32 6.14 5.98 9.33Zm-12.4-5.85c.29 2.82 1.32 7.73-.93 10.1-2.02 2.12-6.16.02-6.79-2.47-.77-3.1 2.28-6.78 4.15-8.87.58-.64 1.85-2.41 2.84-1.82.39.23.7 2.61.74 3.06Zm1.44 11.03c.65-1.53 6.91 3.01 3.95 5.18-.48.35-4.16 1.46-4.86.94-1.48-1.1.43-4.97.91-6.12Zm19-7.58C72.89 2.05 53.08-2.31 42.49 6.5 38.43 9.88 36.1 14 36 19.28c-.1 4.47.62 8.7 4.03 11.77 1.48 1.33 2.46 2.15 3.25 3.97.82 1.9 1.2 4.33 2.74 5.83.85.83 2.09 1.5 3.26.96 2.17-.98 1.47-3.98 2.13-5.65 2.04 4.97 7.21 6.55 8.15.25 1.03 1.82 3.72 4.2 5.7 2.2.81-.8.93-2.14 1.07-3.22.25-1.9-.18-2.66 1.36-3.97 4.03-3.45 5.77-8.67 5.63-13.9Z" fill="#fff"/></g></g><g transform="translate(78 134)"><rect x="22" y="7" width="64" height="26" rx="13" fill="#000" fill-opacity=".6"/><rect x="24" y="9" width="60" height="22" rx="11" fill="#fff"/><path d="M24.18 18H32V9.41A11 11 0 0 1 35 9h1v9h9V9h4v9h9V9h4v9h9V9h2c.68 0 1.35.06 2 .18V18h8.82l.05.28v3.44l-.05.28H75v8.82c-.65.12-1.32.18-2 .18h-2v-9h-9v9h-4v-9h-9v9h-4v-9h-9v9h-1a11 11 0 0 1-3-.41V22h-7.82a11.06 11.06 0 0 1 0-4Z" fill="#E6E6E6"/></g><g transform="translate(104 122)"><path fill-rule="evenodd" clip-rule="evenodd" d="M16 8c0 4.42 5.37 8 12 8s12-3.58 12-8" fill="#000" fill-opacity=".16"/></g><g transform="translate(76 90)"><path d="M25 27s-6 7.27-6 11.27a6 6 0 1 0 12 0c0-4-6-11.27-6-11.27Z" fill="#92D9FF"/><path d="M36 22a6 6 0 1 1-12 0 6 6 0 0 1 12 0ZM88 22a6 6 0 1 1-12 0 6 6 0 0 1 12 0Z" fill="#000" fill-opacity=".6"/></g><g transform="translate(76 82)"><path d="M15.98 17.13C17.48 7.6 30.06 1.1 39.16 5.3a2 2 0 1 0 1.68-3.63c-11.5-5.3-26.9 2.66-28.82 14.84a2 2 0 0 0 3.96.63ZM96.02 17.13C94.52 7.6 81.94 1.1 72.84 5.3a2 2 0 1 1-1.68-3.63c11.5-5.3 26.9 2.66 28.82 14.84a2 2 0 0 1-3.96.63Z" fill="#000" fill-opacity=".6"/></g><g transform="translate(-1)"><path d="M78 98c-.33 1.22-1.65 1.49-2 0-.72-10.3 0-62.27 57-63 57-.73 57.72 52.7 57 63-.35 1.49-1.67 1.22-2 0 .46-1.55-3.3-28.75-13-36-1.76-1.22-7.25-2.39-14.64-3.26L164 50l-6.98 8.38c-7.03-.7-15.36-1.13-23.7-1.13C114 57.23 94.61 59.48 91 62c-9.7 7.25-13.46 34.45-13 36Z" fill="#d6b370"/></g><g transform="translate(49 72)"></g><g transform="translate(62 42)"></g></g></g></svg>