<svg xmlns="http://www.w3.org/2000/svg" viewBox="0 0 280 280" fill="none" shape-rendering="auto"><metadata xmlns:rdf="http://www.w3.org/1999/02/22-rdf-syntax-ns#" xmlns:xsi="http://www.w3.org/2001/XMLSchema-instance" xmlns:dc="http://purl.org/dc/elements/1.1/" xmlns:dcterms="http://purl.org/dc/terms/"><rdf:RDF><rdf:Description><dc:title>Avataaars</dc:title><dc:creator>Pablo Stanley</dc:creator><dc:source xsi:type="dcterms:URI">https://avataaars.com/</dc:source><dcterms:license xsi:type="dcterms:URI">https://avataaars.com/</dcterms:license><dc:rights>Remix of „Avataaars” (https://avataaars.com/) by „Pablo Stanley”, licensed under „Free for personal and commercial use” (https://avataaars.com/)</dc:rights></rdf:Description></rdf:RDF></metadata><mask id="viewboxMask"><rect width="280" height="280" rx="0" ry="0" x="0" y="0" fill="#fff" /></mask><g mask="url(#viewboxMask)"><g transform="translate(8)"><path d="M132 36a56 56 0 0 0-56 56v6.17A12 12 0 0 0 66 110v14a12 12 0 0 0 10.3 11.88 56.04 56.04 0 0 0 31.7 44.73v18.4h-4a72 72 0 0 0-72 72v9h200v-9a72 72 0 0 0-72-72h-4v-18.39a56.04 56.04 0 0 0 31.7-44.73A12 12 0 0 0 198 124v-14a12 12 0 0 0-10-11.83V92a56 56 0 0 0-56-56Z" fill="#f8d25c"/><path d="M108 180.61v8a55.79 55.79 0 0 0 24 5.39c8.59 0 16.73-1.93 24-5.39v-8a55.79 55.79 0 0 1-24 5.39 55.79 55.79 0 0 1-24-5.39Z" fill="#000" fill-opacity=".1"/><g transform="translate(0 170)"><path d="M132.5 54C151 54 166 44.37 166 32.5c0-1.1-.13-2.18-.38-3.23A72 72 0 0 1 232 101.05V110H32v-8.95A72 72 0 0 1 99.4 29.2a14.1 14.1 0 0 0-.4 3.3C99 44.37 114 54 132.5 54Z" fill="#ff488e"/><g transform="translate(77 58)"><path d="M63.78 29.74a320.2 320.2 0 0 1-7.34 7.82c1-3.56 1.74-7.58 3.2-10.96.43-.96.1-1.08.94-1.5.6-.3 2.07.05 2.8.07 1.56.04 3.15.19 4.7-.05-1.45 1.52-2.9 3.05-4.3 4.62ZM48.52 33.8c-2.7-3.28-5.39-6.57-8.66-9.32 1.29.14 2.7-.04 3.96.2 1.94.4 1.83 1 2.82 2.97a99.3 99.3 0 0 1 4.05 8.82c-.71-.9-1.45-1.79-2.17-2.67Zm-9.1-12.53c.96-1.58 1.14-2.98 2.92-3.78 2.06-.94 5.3-.74 7.49-.92-1.37 1.52-3.04 3.1-3.6 5.12a9.54 9.54 0 0 0-3.68-4.17c-.21-.1 1.16 4.55 1.34 4.87-1.72-.1-3.52-.4-5.22-.09l.75-1.03Zm16.4-5.01c1.6.03 3.17.16 4.74.42-1.26 1.67-1.64 3.63-2.1 5.63-.47-2.26-2.2-4.36-3.73-6.05h1.1Zm-3.5 1.07c.24-.16 4.46 5.09 5.07 5.56-3.31 0-6.62-.17-9.92-.32 1.9-1.48 3.02-3.68 4.86-5.24Zm2.7 17.1c-.4 1.35-.78 2.7-1.22 4.05-1.56-4.74-3.86-9.2-6.01-13.68 3.34.09 6.68.21 10.02.26-.82 3.16-1.87 6.24-2.8 9.37Zm7.22-17.46a36.24 36.24 0 0 1 3.87 4.44l1.26 1.65c-2.23-.23-4.54-.13-6.78-.15.5-2.06 1.1-4.01.58-6.13l1.07.19Zm7.65 5.61c-2.16-2.67-4.37-7.26-7.86-8.07-3.48-.8-7.55-.45-11.08-.22-3.07.2-8.08-.2-10.8 1.59-1.39.92-2.42 3-2.9 4.55-.44 1.4.27 2.28-1.25 2.28-.1 0 2.5 3.68 2.81 3.97a78.06 78.06 0 0 1 6.46 6.6c2.83 3.37 5.4 8.33 9.14 9.73-.68-.34 2.8-2.97 3.21-3.42 2.12-2.29 4.25-4.55 6.38-6.83 1.94-2.07 4.05-4.03 5.93-6.15 1.43-1.62 1.44-2.17-.04-4.02ZM36 14c.04.01-.9-2.05-.83-1.92a6.35 6.35 0 0 0-1.73-1.73C32.7 9.85 29.13 9.25 29 9c1.5 2.65 4.17 4.13 7 5ZM51.36 9.2c.17.65.43 1.25.79 1.8.07.08.86-4.18.85-4.55C52.99 5.83 52.6 2 51.8 2c-1.33 0-.67 6.47-.45 7.2ZM77.97 7c-3 0-9.68 5.85-8.9 9a3.35 3.35 0 0 0 .4-.33c1.27-1.02 2.72-2.02 4-3.2.9-.85 1.98-1.61 2.8-2.54.1-.1 2-2.93 1.7-2.93Z" fill-rule="evenodd" clip-rule="evenodd" fill="#fff"/></g></g><g transform="translate(78 134)"><path fill-rule="evenodd" clip-rule="evenodd" d="M40.06 27.72C40.7 20.7 46.7 16 54 16c7.34 0 13.36 4.75 13.95 11.85.03.38-.87.67-1.32.45-5.54-2.77-9.75-4.16-12.63-4.16-2.84 0-7 1.36-12.45 4.07-.5.25-1.53-.07-1.5-.49Z" fill="#000" fill-opacity=".7"/></g><g transform="translate(104 122)"><path fill-rule="evenodd" clip-rule="evenodd" d="M16 8c0 4.42 5.37 8 12 8s12-3.58 12-8" fill="#000" fill-opacity=".16"/></g><g transform="translate(76 90)"><path d="M44 22a14 14 0 1 1-28 0 14 14 0 0 1 28 0ZM96 22a14 14 0 1 1-28 0 14 14 0 0 1 28 0Z" fill="#fff"/><path d="M36 14a6 6 0 1 1-12 0 6 6 0 0 1 12 0ZM88 14a6 6 0 1 1-12 0 6 6 0 0 1 12 0Z" fill="#000" fill-opacity=".7"/></g><g transform="translate(76 82)"><path d="M15.61 15.18c4.24-5.76 6.88-5.48 13.31-.62l.67.5C34.41 18.73 36.7 20 40 20a2 2 0 1 0 0-4c-2.07 0-3.9-1.02-7.99-4.12l-.68-.52C27.57 8.53 25.37 7.3 22.63 7c-3.68-.4-7.05 1.48-10.24 5.83a2 2 0 1 0 3.22 2.36ZM96.39 15.18c-4.24-5.76-6.88-5.48-13.31-.62l-.67.5C77.58 18.73 75.29 20 72 20a2 2 0 1 1 0-4c2.07 0 3.9-1.02 7.99-4.12l.68-.52c3.76-2.83 5.96-4.07 8.7-4.37 3.68-.4 7.05 1.48 10.24 5.83a2 2 0 1 1-3.22 2.36Z" fill="#000" fill-opacity=".6"/></g><g transform="translate(-1)"><path d="M94.7 69.39c-4.62 24.47-16 42.72-25.74 41a7.49 7.49 0 0 1-1.96-.63V89a65.93 65.93 0 0 1 28.4-54.24c.48 2.39.83 4.99 1.05 7.77a262.85 262.85 0 0 1 36.9-2.44c13.27 0 25.67.85 36.22 2.34.22-2.74.57-5.3 1.05-7.67A65.92 65.92 0 0 1 199 89v20.76c-.62.3-1.28.52-1.95.63-9.72 1.72-21.09-16.48-25.73-40.9a260.5 260.5 0 0 1-37.97 2.59c-14.3 0-27.6-1-38.65-2.7Z" fill="#000" fill-opacity=".16"/><path d="M133 0c-11.21 0-21.9 2.2-31.69 6.18-.92-.12-1.86-.18-2.81-.18-6.7 0-12.77 3.07-17.2 8.06-18.04.93-33.46 13.3-40.77 30.9C32.5 49.56 27 59.04 27 70c0 .58.02 1.15.05 1.73A62.11 62.11 0 0 0 17 106c0 7.33 1.21 14.34 3.43 20.78-.28 1.69-.43 3.44-.43 5.22 0 9.45 4.1 17.81 10.38 22.88C37.74 172.68 53.6 185 72 185c1.5 0 2.98-.08 4.44-.24C81.9 189.9 88.88 193 96.5 193c4.44 0 8.67-1.05 12.5-2.95v-9.44a56.03 56.03 0 0 1-31.8-45.74A12 12 0 0 1 67 123v-13c0-1.72.36-3.36 1.02-4.84.3.1.62.18.94.23 9.73 1.72 21.12-16.53 25.74-41 11.05 1.7 24.35 2.7 38.65 2.7 14.02 0 27.06-.96 37.97-2.6 4.64 24.41 16.01 42.6 25.73 40.9.32-.06.63-.14.94-.23a11.96 11.96 0 0 1 1 4.83v13a12 12 0 0 1-10.2 11.87A56.03 56.03 0 0 1 157 180.6v9.44a28.06 28.06 0 0 0 12.5 2.95c7.62 0 14.61-3.1 20.06-8.24 1.46.16 2.94.24 4.44.24 18.39 0 34.26-12.32 41.62-30.12C241.9 149.81 246 141.45 246 132c0-1.78-.15-3.53-.43-5.22A63.91 63.91 0 0 0 249 106a62.11 62.11 0 0 0-10.05-34.27c.04-.58.05-1.15.05-1.73 0-10.96-5.5-20.44-13.53-25.04-7.31-17.6-22.73-29.97-40.77-30.9C180.27 9.07 174.2 6 167.5 6c-.95 0-1.89.06-2.81.18A83.76 83.76 0 0 0 133 0Z" fill="#e8e1e1"/></g><g transform="translate(49 72)"></g><g transform="translate(62 42)"></g></g></g></svg>