<svg xmlns="http://www.w3.org/2000/svg" viewBox="0 0 280 280" fill="none" shape-rendering="auto"><metadata xmlns:rdf="http://www.w3.org/1999/02/22-rdf-syntax-ns#" xmlns:xsi="http://www.w3.org/2001/XMLSchema-instance" xmlns:dc="http://purl.org/dc/elements/1.1/" xmlns:dcterms="http://purl.org/dc/terms/"><rdf:RDF><rdf:Description><dc:title>Avataaars</dc:title><dc:creator>Pablo Stanley</dc:creator><dc:source xsi:type="dcterms:URI">https://avataaars.com/</dc:source><dcterms:license xsi:type="dcterms:URI">https://avataaars.com/</dcterms:license><dc:rights>Remix of „Avataaars” (https://avataaars.com/) by „Pablo Stanley”, licensed under „Free for personal and commercial use” (https://avataaars.com/)</dc:rights></rdf:Description></rdf:RDF></metadata><mask id="viewboxMask"><rect width="280" height="280" rx="0" ry="0" x="0" y="0" fill="#fff" /></mask><g mask="url(#viewboxMask)"><g transform="translate(8)"><path d="M132 36a56 56 0 0 0-56 56v6.17A12 12 0 0 0 66 110v14a12 12 0 0 0 10.3 11.88 56.04 56.04 0 0 0 31.7 44.73v18.4h-4a72 72 0 0 0-72 72v9h200v-9a72 72 0 0 0-72-72h-4v-18.39a56.04 56.04 0 0 0 31.7-44.73A12 12 0 0 0 198 124v-14a12 12 0 0 0-10-11.83V92a56 56 0 0 0-56-56Z" fill="#d08b5b"/><path d="M108 180.61v8a55.79 55.79 0 0 0 24 5.39c8.59 0 16.73-1.93 24-5.39v-8a55.79 55.79 0 0 1-24 5.39 55.79 55.79 0 0 1-24-5.39Z" fill="#000" fill-opacity=".1"/><g transform="translate(0 170)"><path d="M132.5 54C151 54 166 44.37 166 32.5c0-1.1-.13-2.18-.38-3.23A72 72 0 0 1 232 101.05V110H32v-8.95A72 72 0 0 1 99.4 29.2a14.1 14.1 0 0 0-.4 3.3C99 44.37 114 54 132.5 54Z" fill="#3c4f5c"/><g transform="translate(77 58)"><g fill-rule="evenodd" clip-rule="evenodd" fill="#fff"><path d="M65.93 25.4c-4.08 1.37-8.55 3.31-10.9 7.06-1.85 2.95-1.97-.45-4.55.6-2.5 1.02-1.82 5.22-2.73 7.3-.71-1.2-1.05-2.52-1.94-3.6a6.6 6.6 0 0 0 1.81-1.73c.16-.32-4.79.35-5.07.43-1.41.4-2.74.77-4.09 1.43a78.83 78.83 0 0 0 1.96-2.99c.21-.68.58-.68 1.11 0 .75.03 1.18.35 1.96.17 2.92-.66 3.85-6.22.25-5.98a93.38 93.38 0 0 0 4.26-8.8c.5 4.28 6.08 2.8 7.72.52 2.14-3-.6-8.66-4.49-8.11.58-1.38 1.17-2.77 1.65-4.18 1.1 1.6 3 2.39 4.54 3.45a18.2 18.2 0 0 1 4.16 4.01c2.4 3.14 3.8 7 6.22 10.05-.64.04-1.26.16-1.87.36Zm9-4.4c-.62-5.75-5.14-11.6-9.43-15.17-2.55-2.13-10.24-7.39-13.3-3.34 2.46 1.07 5.2 1.33 7.64 2.49 3.32 1.57 5.92 4.16 8.17 7.05 3.14 4.05 7.97 12.28.48 14.39.5-.34.8-.71 1.21-1.31-1-.23-.6-1.88-.95-2.95-.41-1.25-1.21-2.47-1.89-3.59a56.62 56.62 0 0 0-3.5-5.17A23.46 23.46 0 0 0 57.4 8c-.9-.58-1.77-1.1-2.81-1.4-1.35-.4-.91.08-1.28-1.15-.23-.78-.02-1.77-.25-2.6-1.97 1.66-2.6 4.06-3.5 6.39-1.01 2.68-2.12 5.33-3.2 8-2.63 6.53-6.02 12.39-9.88 18.24-.67 1.02-2.17 2.95-1.1 4.17.97 1.1 2.34.3 3.4-.13 1.43-.6 3.38-2.17 4.93-1.35 2 1.05 1.05 4.98 4.21 4.83 3.12-.16 2.53-5.28 3.53-7.32 2.31 1.68 4.18.64 5.58-1.61 1.63-2.61 3.77-3.66 6.51-4.94 1.12-.52 3.04-1.94 4.2-2.12.97-.13 1.9.9 3.19.85 3.1-.11 4.39-4.25 4.02-6.85Z"/><path d="M53.54 23.83c-2.43-.44-5.8-.07-6.03 3.16-.14 1.97 1.4 3.85 3.08 4.66 5.12 2.5 9.1-6.69 2.95-7.82ZM63.34 20.16c-.65-.7-1.7-1.24-2.68-1 .31-.2.57-.6.87-.83-3.16-2.29-5.14 3.47-3.35 5.74 2.72 3.44 8.04-.76 5.16-3.91Z"/></g></g></g><g transform="translate(78 134)"><path fill-rule="evenodd" clip-rule="evenodd" d="M35.12 29.87a19 19 0 0 1 37.77.09c.08.77-.77 2.04-1.85 2.04H37.1C36 32 35 30.82 35.12 29.87Z" fill="#000" fill-opacity=".7"/><path d="M69.59 32H38.4a11 11 0 0 1 15.6-6.8A11 11 0 0 1 69.59 32Z" fill="#FF4F6D"/><path d="M66.57 17.75A5 5 0 0 1 65 18H44c-.8 0-1.57-.2-2.24-.53A18.92 18.92 0 0 1 54 13c4.82 0 9.22 1.8 12.57 4.75Z" fill="#fff"/></g><g transform="translate(104 122)"><path fill-rule="evenodd" clip-rule="evenodd" d="M16 8c0 4.42 5.37 8 12 8s12-3.58 12-8" fill="#000" fill-opacity=".16"/></g><g transform="translate(76 90)"><path d="M35.96 10c-2.55 0-5.08 1.98-6.46 3.82-1.39-1.84-3.9-3.82-6.46-3.82-5.49 0-9.04 3.33-9.04 7.64 0 5.73 4.41 9.13 9.04 12.74 1.66 1.23 4.78 4.4 5.17 5.1.38.68 2.1.7 2.58 0 .48-.73 3.51-3.87 5.17-5.1 4.63-3.6 9.04-7 9.04-12.74 0-4.3-3.55-7.64-9.04-7.64ZM88.96 10c-2.55 0-5.08 1.98-6.46 3.82-1.39-1.84-3.9-3.82-6.46-3.82-5.49 0-9.04 3.33-9.04 7.64 0 5.73 4.41 9.13 9.04 12.74 1.65 1.23 4.78 4.4 5.17 5.1.38.68 2.1.7 2.58 0 .48-.73 3.51-3.87 5.17-5.1 4.63-3.6 9.04-7 9.04-12.74 0-4.3-3.55-7.64-9.04-7.64Z" fill="#FF5353" fill-opacity=".8"/></g><g transform="translate(76 82)"><path d="m31.23 20.42-.9.4c-5.25 2.09-13.2 1.21-18.05-1.12-.57-.27-.18-1.15.4-1.1 14.92 1.14 24.96-8.15 28.37-14.45.1-.18.41-.2.49-.03 2.3 5.32-4.45 13.98-10.3 16.3ZM80.77 20.42l.9.4c5.25 2.09 13.2 1.21 18.05-1.12.57-.27.18-1.15-.4-1.1-14.92 1.14-24.96-8.15-28.37-14.45-.1-.18-.41-.2-.49-.03-2.3 5.32 4.45 13.98 10.3 16.3Z" fill-rule="evenodd" clip-rule="evenodd" fill="#000" fill-opacity=".6"/></g><g transform="translate(-1)"><path fill-rule="evenodd" clip-rule="evenodd" d="M76 98c.35 1.49 1.67 1.22 2 0-.46-1.55 3.3-28.75 13-36 3.62-2.52 23-4.77 42.31-4.75 19.1 0 38.11 2.26 41.69 4.75 9.7 7.25 13.46 34.45 13 36 .33 1.22 1.65 1.49 2 0 .72-10.3 0-63.73-57-63-57 .73-57.72 52.7-57 63Z" fill="#724133"/></g><g transform="translate(49 72)"></g><g transform="translate(62 42)"></g></g></g></svg>