<svg xmlns="http://www.w3.org/2000/svg" viewBox="0 0 280 280" fill="none" shape-rendering="auto"><metadata xmlns:rdf="http://www.w3.org/1999/02/22-rdf-syntax-ns#" xmlns:xsi="http://www.w3.org/2001/XMLSchema-instance" xmlns:dc="http://purl.org/dc/elements/1.1/" xmlns:dcterms="http://purl.org/dc/terms/"><rdf:RDF><rdf:Description><dc:title>Avataaars</dc:title><dc:creator>Pablo Stanley</dc:creator><dc:source xsi:type="dcterms:URI">https://avataaars.com/</dc:source><dcterms:license xsi:type="dcterms:URI">https://avataaars.com/</dcterms:license><dc:rights>Remix of „Avataaars” (https://avataaars.com/) by „Pablo Stanley”, licensed under „Free for personal and commercial use” (https://avataaars.com/)</dc:rights></rdf:Description></rdf:RDF></metadata><mask id="viewboxMask"><rect width="280" height="280" rx="0" ry="0" x="0" y="0" fill="#fff" /></mask><g mask="url(#viewboxMask)"><g transform="translate(8)"><path d="M132 36a56 56 0 0 0-56 56v6.17A12 12 0 0 0 66 110v14a12 12 0 0 0 10.3 11.88 56.04 56.04 0 0 0 31.7 44.73v18.4h-4a72 72 0 0 0-72 72v9h200v-9a72 72 0 0 0-72-72h-4v-18.39a56.04 56.04 0 0 0 31.7-44.73A12 12 0 0 0 198 124v-14a12 12 0 0 0-10-11.83V92a56 56 0 0 0-56-56Z" fill="#f8d25c"/><path d="M108 180.61v8a55.79 55.79 0 0 0 24 5.39c8.59 0 16.73-1.93 24-5.39v-8a55.79 55.79 0 0 1-24 5.39 55.79 55.79 0 0 1-24-5.39Z" fill="#000" fill-opacity=".1"/><g transform="translate(0 170)"><path d="M108 14.7c-15.52 3.68-27.1 10.83-30.77 19.44A72.02 72.02 0 0 0 32 101v9h200v-9a72.02 72.02 0 0 0-45.23-66.86C183.1 25.53 171.52 18.38 156 14.7V32a24 24 0 1 1-48 0V14.7Z" fill="#25557c"/><path d="M102 63.34a67.1 67.1 0 0 1-7-2.82V110h7V63.34ZM162 63.34a67.04 67.04 0 0 0 7-2.82V98.5a3.5 3.5 0 1 1-7 0V63.34Z" fill="#F4F4F4"/><path d="M187.62 34.49a71.79 71.79 0 0 1 10.83 5.63C197.11 55.62 167.87 68 132 68c30.93 0 56-13.43 56-30 0-1.19-.13-2.36-.38-3.51ZM76.38 34.49a16.48 16.48 0 0 0-.38 3.5c0 16.58 25.07 30 56 30-35.87 0-65.1-12.38-66.45-27.88a71.79 71.79 0 0 1 10.83-5.63Z" fill="#000" fill-opacity=".16"/></g><g transform="translate(78 134)"><path fill-rule="evenodd" clip-rule="evenodd" d="M34 38.86C35.14 24.88 38.24 13.01 54 13c15.76 0 18.92 11.94 20 26 .08 1.12-.83 2-1.96 2-6.69 0-9.37-2-18.05-2-8.7 0-13.24 2-17.9 2-1.15 0-2.2-.74-2.1-2.14Z" fill="#000" fill-opacity=".7"/><path d="M67.02 17.57c-.61.28-1.3.43-2.02.43H44c-.98 0-1.9-.28-2.67-.77C44.23 14.57 48.28 13 54 13c5.95 0 10.1 1.7 13.02 4.57Z" fill="#fff"/><path d="M69.8 40.92a44.2 44.2 0 0 1-5.54-.82c-2.73-.53-5.65-1.1-10.27-1.1-5.02 0-8.66.66-11.74 1.23-1.45.26-2.77.5-4.06.65A11 11 0 0 1 54 33.2a11 11 0 0 1 15.8 7.72Z" fill="#FF4F6D"/></g><g transform="translate(104 122)"><path fill-rule="evenodd" clip-rule="evenodd" d="M16 8c0 4.42 5.37 8 12 8s12-3.58 12-8" fill="#000" fill-opacity=".16"/></g><g transform="translate(76 90)"><path d="M16.16 22.45c1.85-3.8 6-6.45 10.84-6.45 4.81 0 8.96 2.63 10.82 6.4.55 1.13-.24 2.05-1.03 1.37a15.05 15.05 0 0 0-9.8-3.43c-3.73 0-7.12 1.24-9.55 3.23-.9.73-1.82-.01-1.28-1.12ZM74.16 22.45c1.85-3.8 6-6.45 10.84-6.45 4.81 0 8.96 2.63 10.82 6.4.55 1.13-.24 2.05-1.03 1.37a15.05 15.05 0 0 0-9.8-3.43c-3.74 0-7.13 1.24-9.56 3.23-.9.73-1.82-.01-1.28-1.12Z" fill-rule="evenodd" clip-rule="evenodd" fill="#000" fill-opacity=".6"/></g><g transform="translate(76 82)"><path d="m22.77 1.58.9-.4C28.93-.91 36.88-.03 41.73 2.3c.57.27.18 1.15-.4 1.1-14.92-1.14-24.96 8.15-28.37 14.45-.1.18-.41.2-.49.03-2.3-5.32 4.45-13.98 10.3-16.3ZM89.23 1.58l-.9-.4C83.07-.91 75.12-.03 70.27 2.3c-.57.27-.18 1.15.4 1.1 14.92-1.14 24.96 8.15 28.37 14.45.1.18.41.2.49.03 2.3-5.32-4.45-13.98-10.3-16.3Z" fill-rule="evenodd" clip-rule="evenodd" fill="#000" fill-opacity=".6"/></g><g transform="translate(-1)"><path d="m175.83 55.92-.03.02c.76.88 1.49 1.78 2.19 2.7a55.74 55.74 0 0 1 11 33.36v5.5c0-15.77-6.69-29.98-17.4-39.93-11.58 3.77-49.58 14.27-77.63.42A54.35 54.35 0 0 0 77 97.5V92c0-12.5 4.1-24.04 11.01-33.35.71-.94 1.45-1.86 2.22-2.75l-.02-.02A55.88 55.88 0 0 1 133 36a55.88 55.88 0 0 1 42.82 19.92Z" fill="#000" fill-opacity=".16"/><path d="M92.54 53.29A55.81 55.81 0 0 0 77 91.99v6.17a11.97 11.97 0 0 0-6.49 3.34l.7-17.37a45.92 45.92 0 0 1 17.37-34.17c-2.2-3.84-1.45-10.33 7.8-13.1 5.07-1.5 7.57-5.08 10.24-8.88 3.5-5 7.27-10.37 17.48-11.92 9.87-1.5 13.23-.88 17.05-.18 3.13.57 6.58 1.2 14.2.76 9.85-.57 16.86-4 21.43-6.22 3.26-1.6 5.27-2.58 6.17-1.47 15.42 18.9 6.97 33.8-6.2 41.96A45.9 45.9 0 0 1 193 86v13.6c-1.22-.7-2.56-1.2-4-1.43V92c0-15.26-6.1-29.09-16-39.19-7.76 2.75-50.39 16.55-80.46.48ZM223.61 226.05c3.06 5.6 4.05 11.12 3.5 16.38A72.02 72.02 0 0 0 161 199h-4v-18.39a56.03 56.03 0 0 0 31.8-45.74c1.5-.23 2.93-.74 4.2-1.47v20.7c0 20.77 11.47 39.79 22.15 57.47 2.97 4.93 5.88 9.75 8.46 14.48ZM68.7 146.5l.66-16.35a12 12 0 0 0 7.85 4.72A56.03 56.03 0 0 0 109 180.6V199h-4c-11.2 0-21.8 2.56-31.25 7.12-2.99-18.29-4.3-38.68-5.05-59.62Z" fill="#b58143"/><path fill-rule="evenodd" clip-rule="evenodd" d="M90.88 52.36c33.22 19.3 83.37 0 83.37 0 14.53-7.77 25.08-23.32 8.7-43.4-2.17-2.66-10.7 6.72-27.6 7.7-16.9.97-13.27-3.31-31.25-.59-17.97 2.73-15.99 17.3-27.72 20.8-11.73 3.5-9.8 13-5.5 15.5Z" fill="#fff" fill-opacity=".2"/></g><g transform="translate(49 72)"></g><g transform="translate(62 42)"><g fill-rule="evenodd" clip-rule="evenodd"><path d="M111.71 53.49c4.67.16 8 .88 10.55 4.52 3.01.15 6.25.37 8.98 1.63 3.39 1.56 3.9 5.1-.36 5.59-1.86.2-3.72-.12-5.55-.45l-.19-.03-.33-.06c1.1 9.46-6.21 20.87-14.23 24.35C99.6 93.8 87.34 88.53 81.53 79c-2.62-4.3-4.14-10.51-4.46-15.86-.42-.2-.83-.44-1.23-.67-.38-.22-.76-.44-1.12-.61-2-.98-5.34-1.1-7.5 0-.35.17-.7.37-1.05.58-.42.25-.86.5-1.3.72C64.53 68.5 63.01 74.7 60.4 79c-5.8 9.53-18.07 14.8-29.05 10.04-8.02-3.48-15.33-14.89-14.23-24.35l-.33.06-.2.03c-1.83.33-3.7.66-5.55.45-4.27-.5-3.74-4.03-.36-5.6 2.72-1.25 5.96-1.47 8.97-1.62 2.55-3.63 5.88-4.36 10.55-4.52l23.29-.46c5.19-.14 9.72 0 11.03 4.6a18.7 18.7 0 0 1 6.35-1.25c1.86 0 4.35.45 6.5 1.28 1.3-4.64 5.83-4.77 11.03-4.63l23.3.46Zm-24.03 6.78c-2.37.03-3.5.42-3.9 2.9-.4 2.5 0 5.31.46 7.78.73 3.77 1.92 7.46 4.71 10.22a16.24 16.24 0 0 0 8.32 4.34c.11.03.54.1.96.16.63.1 1.23.18.71.13 3.73.4 7.72.3 10.82-2.05 3.53-2.7 5.95-6.95 7.01-11.2.63-2.48 1.93-8.42-.46-10.4-2.73-2.28-28.63-1.88-28.63-1.88Zm-33.43 0c2.37.03 3.5.42 3.9 2.9.4 2.5 0 5.32-.46 7.78-.73 3.77-1.92 7.46-4.71 10.22a16.23 16.23 0 0 1-9.28 4.5c-.64.1-1.26.19-.68.13-3.73.4-7.74.32-10.85-2.05-3.53-2.69-5.95-6.95-7.01-11.2-.63-2.48-1.93-8.42.46-10.4 2.73-2.28 28.63-1.87 28.63-1.87Zm-10.93 25.5Z" fill="#000" fill-opacity=".1"/><path d="M55.01 57.28c2.51.02 3.7.45 4.13 3.11.43 2.7 0 5.74-.5 8.4-.75 4.06-2.02 8.04-4.98 11a17.16 17.16 0 0 1-8.8 4.69c-.33.07-3.15.47-1.42.27-4.04.47-8.43.45-11.8-2.17-3.74-2.9-6.3-7.5-7.43-12.07-.66-2.66-2.04-9.06.49-11.2C27.6 56.85 55 57.28 55 57.28Z" fill="#000" fill-opacity=".7"/><path d="M55.01 57.28c2.51.02 3.7.45 4.13 3.11.43 2.7 0 5.74-.5 8.4-.75 4.06-2.02 8.04-4.98 11a17.16 17.16 0 0 1-8.8 4.69c-.33.07-3.15.47-1.42.27-4.04.47-8.43.45-11.8-2.17-3.74-2.9-6.3-7.5-7.43-12.07-.66-2.66-2.04-9.06.49-11.2C27.6 56.85 55 57.28 55 57.28Z" fill="url(#accessoriesSunglasses-a)" style="mix-blend-mode:screen"/><path d="M86.92 57.27c-2.51.03-3.7.45-4.13 3.12-.43 2.7 0 5.73.5 8.4.75 4.06 2.02 8.03 4.98 11a17.17 17.17 0 0 0 8.8 4.69c.33.07 3.15.47 1.42.26 4.04.47 8.43.45 11.8-2.16 3.74-2.9 6.3-7.5 7.43-12.07.66-2.67 2.04-9.07-.49-11.2-2.9-2.46-30.31-2.03-30.31-2.03Z" fill="#000" fill-opacity=".7"/><path d="M86.92 57.27c-2.51.03-3.7.45-4.13 3.12-.43 2.7 0 5.73.5 8.4.75 4.06 2.02 8.03 4.98 11a17.17 17.17 0 0 0 8.8 4.69c.33.07 3.15.47 1.42.26 4.04.47 8.43.45 11.8-2.16 3.74-2.9 6.3-7.5 7.43-12.07.66-2.67 2.04-9.07-.49-11.2-2.9-2.46-30.31-2.03-30.31-2.03Z" fill="url(#accessoriesSunglasses-b)" style="mix-blend-mode:screen"/><path d="M111.71 51.49c4.67.16 8 .88 10.55 4.52 3.01.15 6.25.37 8.98 1.63 3.39 1.56 3.9 5.1-.36 5.59-1.86.2-3.72-.12-5.55-.45l-.19-.03-.33-.06c1.1 9.46-6.21 20.87-14.23 24.35C99.6 91.8 87.34 86.53 81.53 77c-2.62-4.3-4.14-10.51-4.46-15.86-.42-.2-.83-.44-1.23-.67-.38-.22-.76-.44-1.12-.61-2-.98-5.34-1.1-7.5 0-.35.17-.7.37-1.05.58-.42.25-.86.5-1.3.72C64.53 66.5 63.01 72.7 60.4 77c-5.8 9.53-18.07 14.8-29.05 10.04-8.02-3.48-15.33-14.89-14.23-24.35-.11 0-.22.03-.33.05l-.2.03c-1.83.33-3.7.66-5.55.45-4.27-.5-3.74-4.03-.36-5.6 2.72-1.25 5.96-1.47 8.97-1.62 2.55-3.63 5.88-4.36 10.55-4.52l23.29-.46c5.19-.14 9.72 0 11.03 4.6a18.7 18.7 0 0 1 6.35-1.25c1.86 0 4.35.45 6.5 1.28 1.3-4.64 5.83-4.77 11.03-4.63l23.3.46Zm-24.03 6.78c-2.37.03-3.5.42-3.9 2.9-.4 2.5 0 5.31.46 7.78.73 3.77 1.92 7.46 4.71 10.22a16.24 16.24 0 0 0 8.32 4.34c.11.03.54.1.96.16.63.1 1.23.18.71.13 3.73.4 7.72.3 10.82-2.05 3.53-2.7 5.95-6.95 7.01-11.2.63-2.48 1.93-8.42-.46-10.4-2.73-2.28-28.63-1.88-28.63-1.88Zm-33.43 0c2.37.03 3.5.42 3.9 2.9.4 2.5 0 5.32-.46 7.78-.73 3.77-1.92 7.46-4.71 10.22a16.23 16.23 0 0 1-9.28 4.5c-.64.1-1.26.19-.68.13-3.73.4-7.74.32-10.85-2.05-3.53-2.69-5.95-6.95-7.01-11.2-.63-2.48-1.93-8.42.46-10.4 2.73-2.28 28.63-1.87 28.63-1.87Zm-10.93 25.5Z" fill="#a7ffc4"/></g><defs><linearGradient id="accessoriesSunglasses-a" x1="28.56" y1="57.25" x2="28.56" y2="76.8" gradientUnits="userSpaceOnUse"><stop stop-color="#fff" stop-opacity=".5"/><stop offset="1" stop-opacity=".5"/></linearGradient><linearGradient id="accessoriesSunglasses-b" x1="82.61" y1="57.25" x2="82.61" y2="84.98" gradientUnits="userSpaceOnUse"><stop stop-color="#fff" stop-opacity=".5"/><stop offset=".71" stop-opacity=".5"/></linearGradient></defs></g></g></g></svg>