<svg xmlns="http://www.w3.org/2000/svg" viewBox="0 0 280 280" fill="none" shape-rendering="auto"><metadata xmlns:rdf="http://www.w3.org/1999/02/22-rdf-syntax-ns#" xmlns:xsi="http://www.w3.org/2001/XMLSchema-instance" xmlns:dc="http://purl.org/dc/elements/1.1/" xmlns:dcterms="http://purl.org/dc/terms/"><rdf:RDF><rdf:Description><dc:title>Avataaars</dc:title><dc:creator>Pablo Stanley</dc:creator><dc:source xsi:type="dcterms:URI">https://avataaars.com/</dc:source><dcterms:license xsi:type="dcterms:URI">https://avataaars.com/</dcterms:license><dc:rights>Remix of „Avataaars” (https://avataaars.com/) by „Pablo Stanley”, licensed under „Free for personal and commercial use” (https://avataaars.com/)</dc:rights></rdf:Description></rdf:RDF></metadata><mask id="viewboxMask"><rect width="280" height="280" rx="0" ry="0" x="0" y="0" fill="#fff" /></mask><g mask="url(#viewboxMask)"><g transform="translate(8)"><path d="M132 36a56 56 0 0 0-56 56v6.17A12 12 0 0 0 66 110v14a12 12 0 0 0 10.3 11.88 56.04 56.04 0 0 0 31.7 44.73v18.4h-4a72 72 0 0 0-72 72v9h200v-9a72 72 0 0 0-72-72h-4v-18.39a56.04 56.04 0 0 0 31.7-44.73A12 12 0 0 0 198 124v-14a12 12 0 0 0-10-11.83V92a56 56 0 0 0-56-56Z" fill="#d08b5b"/><path d="M108 180.61v8a55.79 55.79 0 0 0 24 5.39c8.59 0 16.73-1.93 24-5.39v-8a55.79 55.79 0 0 1-24 5.39 55.79 55.79 0 0 1-24-5.39Z" fill="#000" fill-opacity=".1"/><g transform="translate(0 170)"><path d="M132.5 54C151 54 166 44.37 166 32.5c0-1.1-.13-2.18-.38-3.23A72 72 0 0 1 232 101.05V110H32v-8.95A72 72 0 0 1 99.4 29.2a14.1 14.1 0 0 0-.4 3.3C99 44.37 114 54 132.5 54Z" fill="#ffafb9"/><g transform="translate(77 58)"><path fill-rule="evenodd" clip-rule="evenodd" d="M71.76 15.26c1.6-.18 4.79-.55 5.2.98.3 1.09-1.16 2.07-2.26 2.8-.34.24-.64.44-.85.61l-.16.14a25.73 25.73 0 0 1-4.66 3.41 12.85 12.85 0 0 1-2.93 1.08c-.28.07-.43.11-.55.2-.15.11-.23.3-.43.74l-.03.08c-.45 1-.73 2.18-1 3.36-.23 1.02-.47 2.04-.81 2.95-1.7 4.46-5.77 14.8-12.27 10.26-1.7-1.2-2.78-3.3-3.75-5.24-.2-.41-.4-.81-.61-1.2a43.46 43.46 0 0 1-3.38-8.24c-.1-.37-.16-.66-.2-.92-.14-.68-.2-1.04-.93-1.5-.37-.23-.9-.36-1.4-.49-.36-.09-.7-.17-.99-.29a17.05 17.05 0 0 1-4.08-2.44c-1.24-.97-6.11-4.95-2.14-5.7 1.8-.33 4.16-.2 6-.11h.07c2.03.1 4.07.57 5.88 1.54h.01c.9.48 1.22.66 1.54.65.2 0 .38-.08.68-.18.24-.1.55-.2.98-.33-3.32-1.12-6.65-3-8.89-5.78-1.2-1.5-4-7.65-1.9-9.06 1.8-1.2 2.42 2 2.88 4.4.2.97.36 1.81.56 2.17 1.24 2.13 3.28 3.23 5.32 4.33.58.32 1.16.63 1.72.96a12.47 12.47 0 0 1-3.67-5.86l-.08-.3c-.31-1.14-.9-3.28-.44-4.19.52-1.04 1.76-1.1 2.45-.22.41.53.48 1.52.54 2.4a8.63 8.63 0 0 0 2.11 5.23 11.17 11.17 0 0 0 5.68 3.73c5.12 1.26 6.91-4.1 7.6-8.25.04-.24.06-.52.08-.81.05-.93.11-2 .97-2.36 1.37-.6 1.9.74 1.94 1.78.09 2.31-1.06 5.85-2.17 7.84 2.8-1.73 5-4.48 5.9-7.69.1-.37.15-.9.2-1.46.1-1.2.22-2.58.98-3.04 1.54-.92 2.02.92 1.97 2.02-.32 6.52-5.3 12.44-11.49 14.07l.55.28c.95.5.98.53 2.3-.25.9-.53 1.86-.93 2.84-1.24 1.47-.45 3.05-.68 4.58-.81l.54-.06Zm-12.9 9.36c-.07 3.27-3.24 3.04-2.82.1.32-2.32 3.68-2.24 2.82-.1Zm-1.93 9.02c-.5 1.56-4.33 2.12-3.9-.17.37-1.95 4.56-2.03 3.9.17ZM51.7 27c-2.82 0-1.9-4.87 1-3.86 2.27.8 1.33 3.86-1 3.86Z" fill="#fff"/></g></g><g transform="translate(78 134)"><path fill-rule="evenodd" clip-rule="evenodd" d="M40 15a14 14 0 1 0 28 0" fill="#000" fill-opacity=".7"/></g><g transform="translate(104 122)"><path fill-rule="evenodd" clip-rule="evenodd" d="M16 8c0 4.42 5.37 8 12 8s12-3.58 12-8" fill="#000" fill-opacity=".16"/></g><g transform="translate(76 90)"><path d="M44 20.73c0 4.26-6.27 7.72-14 7.72S16 25 16 20.73C16 16.46 22.27 13 30 13s14 3.46 14 7.73ZM96 20.73c0 4.26-6.27 7.72-14 7.72S68 25 68 20.73C68 16.46 74.27 13 82 13s14 3.46 14 7.73Z" fill="#fff"/><path d="M32.82 28.3a25.15 25.15 0 0 1-5.64 0 6 6 0 1 1 5.64 0ZM84.82 28.3a25.15 25.15 0 0 1-5.64 0 6 6 0 1 1 5.64 0Z" fill="#000" fill-opacity=".7"/></g><g transform="translate(76 82)"><path d="M15.61 15.18c4.24-5.76 6.88-5.48 13.31-.62l.67.5C34.41 18.73 36.7 20 40 20a2 2 0 1 0 0-4c-2.07 0-3.9-1.02-7.99-4.12l-.68-.52C27.57 8.53 25.37 7.3 22.63 7c-3.68-.4-7.05 1.48-10.24 5.83a2 2 0 1 0 3.22 2.36ZM96.39 15.18c-4.24-5.76-6.88-5.48-13.31-.62l-.67.5C77.58 18.73 75.29 20 72 20a2 2 0 1 1 0-4c2.07 0 3.9-1.02 7.99-4.12l.68-.52c3.76-2.83 5.96-4.07 8.7-4.37 3.68-.4 7.05 1.48 10.24 5.83a2 2 0 1 1-3.22 2.36Z" fill="#000" fill-opacity=".6"/></g><g transform="translate(-1)"><circle cx="133" cy="20" r="20" fill="#F4F4F4"/><path fill-rule="evenodd" clip-rule="evenodd" d="M67 78a66 66 0 1 1 132 0v5H67v-5Z" fill="#929598"/><path fill-rule="evenodd" clip-rule="evenodd" d="M64 69.77a7.05 7.05 0 0 1 3.05-5.96c7.8-5.18 30.42-17.8 66.02-17.8 35.6 0 58.14 12.62 65.9 17.81a7.04 7.04 0 0 1 3.03 5.95v30.2c0 3.3-3.9 5.38-6.78 3.75C184.84 97.83 163.1 88 133.8 88a133.57 133.57 0 0 0-63.17 15.98c-2.85 1.56-6.63-.5-6.63-3.75V69.77Z" fill="#000" fill-opacity=".1"/><path fill-rule="evenodd" clip-rule="evenodd" d="M64 67.77a7.05 7.05 0 0 1 3.05-5.96c7.8-5.18 30.42-17.8 66.02-17.8 35.6 0 58.14 12.62 65.9 17.81a7.04 7.04 0 0 1 3.03 5.95v30.2c0 3.3-3.9 5.38-6.78 3.75C184.84 95.83 163.1 86 133.8 86a133.57 133.57 0 0 0-63.17 15.98c-2.85 1.56-6.63-.5-6.63-3.75V67.77Z" fill="#F4F4F4"/></g><g transform="translate(49 72)"></g><g transform="translate(62 42)"></g></g></g></svg>