<svg xmlns="http://www.w3.org/2000/svg" viewBox="0 0 280 280" fill="none" shape-rendering="auto"><metadata xmlns:rdf="http://www.w3.org/1999/02/22-rdf-syntax-ns#" xmlns:xsi="http://www.w3.org/2001/XMLSchema-instance" xmlns:dc="http://purl.org/dc/elements/1.1/" xmlns:dcterms="http://purl.org/dc/terms/"><rdf:RDF><rdf:Description><dc:title>Avataaars</dc:title><dc:creator>Pablo Stanley</dc:creator><dc:source xsi:type="dcterms:URI">https://avataaars.com/</dc:source><dcterms:license xsi:type="dcterms:URI">https://avataaars.com/</dcterms:license><dc:rights>Remix of „Avataaars” (https://avataaars.com/) by „Pablo Stanley”, licensed under „Free for personal and commercial use” (https://avataaars.com/)</dc:rights></rdf:Description></rdf:RDF></metadata><mask id="viewboxMask"><rect width="280" height="280" rx="0" ry="0" x="0" y="0" fill="#fff" /></mask><g mask="url(#viewboxMask)"><g transform="translate(8)"><path d="M132 36a56 56 0 0 0-56 56v6.17A12 12 0 0 0 66 110v14a12 12 0 0 0 10.3 11.88 56.04 56.04 0 0 0 31.7 44.73v18.4h-4a72 72 0 0 0-72 72v9h200v-9a72 72 0 0 0-72-72h-4v-18.39a56.04 56.04 0 0 0 31.7-44.73A12 12 0 0 0 198 124v-14a12 12 0 0 0-10-11.83V92a56 56 0 0 0-56-56Z" fill="#f8d25c"/><path d="M108 180.61v8a55.79 55.79 0 0 0 24 5.39c8.59 0 16.73-1.93 24-5.39v-8a55.79 55.79 0 0 1-24 5.39 55.79 55.79 0 0 1-24-5.39Z" fill="#000" fill-opacity=".1"/><g transform="translate(0 170)"><path d="M100.37 29.14a27.6 27.6 0 0 1 7.63-7.57v15.3c0 5.83 3.98 10.98 10.08 14.13l-.08.06.9 2.86c3.89 2 8.35 3.13 13.1 3.13s9.21-1.13 13.1-3.13l.9-2.86-.08-.06c6.1-3.15 10.08-8.3 10.08-14.12v-14.6a27.1 27.1 0 0 1 6.6 6.82 72 72 0 0 1 69.4 71.95V110H32v-8.95a72 72 0 0 1 68.37-71.9Z" fill="#65c9ff"/><path d="M108 21.57c-6.77 4.6-11 11.17-11 18.46 0 7.4 4.36 14.05 11.3 18.66l6.12-4.81 4.58.33-1-3.15.08-.06c-6.1-3.15-10.08-8.3-10.08-14.12v-15.3ZM156 36.88c0 5.82-3.98 10.97-10.08 14.12l.08.06-1 3.15 4.58-.33 5.65 4.45c6.63-4.6 10.77-11.1 10.77-18.3 0-6.92-3.82-13.2-10-17.75v14.6Z" fill="#fff" fill-opacity=".75"/></g><g transform="translate(78 134)"><path fill-rule="evenodd" clip-rule="evenodd" d="M34 30.4C35.14 19.9 38.24 11 54 11c15.76 0 18.92 8.96 20 19.5.08.84-.83 1.5-1.96 1.5-6.69 0-9.37-1.5-18.05-1.5-8.7 0-13.24 1.5-17.9 1.5-1.15 0-2.2-.55-2.1-1.6Z" fill="#000" fill-opacity=".7"/><path d="M67.86 15.1c-.8.57-1.8.9-2.86.9H44c-1.3 0-2.49-.5-3.38-1.31C43.56 12.38 47.8 11 54 11c6.54 0 10.9 1.54 13.86 4.1Z" fill="#fff"/><path d="M42 25a6 6 0 0 0-6 6v7a6 6 0 0 0 12 0v-2h.08a6 6 0 0 1 11.84 0H60a6 6 0 0 0 12 0v-5a6 6 0 0 0-6-6H42Z" fill="#7BB24B"/><path d="M72 31a6 6 0 0 0-6-6H42a6 6 0 0 0-6 6v6a6 6 0 0 0 12 0v-2h.08a6 6 0 0 1 11.84 0H60a6 6 0 0 0 12 0v-4Z" fill="#88C553"/></g><g transform="translate(104 122)"><path fill-rule="evenodd" clip-rule="evenodd" d="M16 8c0 4.42 5.37 8 12 8s12-3.58 12-8" fill="#000" fill-opacity=".16"/></g><g transform="translate(76 90)"><path d="M35.96 10c-2.55 0-5.08 1.98-6.46 3.82-1.39-1.84-3.9-3.82-6.46-3.82-5.49 0-9.04 3.33-9.04 7.64 0 5.73 4.41 9.13 9.04 12.74 1.66 1.23 4.78 4.4 5.17 5.1.38.68 2.1.7 2.58 0 .48-.73 3.51-3.87 5.17-5.1 4.63-3.6 9.04-7 9.04-12.74 0-4.3-3.55-7.64-9.04-7.64ZM88.96 10c-2.55 0-5.08 1.98-6.46 3.82-1.39-1.84-3.9-3.82-6.46-3.82-5.49 0-9.04 3.33-9.04 7.64 0 5.73 4.41 9.13 9.04 12.74 1.65 1.23 4.78 4.4 5.17 5.1.38.68 2.1.7 2.58 0 .48-.73 3.51-3.87 5.17-5.1 4.63-3.6 9.04-7 9.04-12.74 0-4.3-3.55-7.64-9.04-7.64Z" fill="#FF5353" fill-opacity=".8"/></g><g transform="translate(76 82)"><path d="M38.03 5.6c-1.48 8.38-14.1 14.17-23.24 10.42a2.04 2.04 0 0 0-2.64 1c-.43.97.04 2.1 1.05 2.5 11.45 4.7 26.84-2.37 28.76-13.3a1.92 1.92 0 0 0-1.64-2.2 2 2 0 0 0-2.3 1.57ZM73.97 5.6c1.48 8.38 14.1 14.17 23.24 10.42 1.02-.41 2.2.03 2.63 1 .43.97-.04 2.1-1.05 2.5-11.44 4.7-26.84-2.37-28.76-13.3a1.92 1.92 0 0 1 1.64-2.2 2 2 0 0 1 2.3 1.57Z" fill="#000" fill-opacity=".6"/></g><g transform="translate(-1)"><path d="M190.47 97.5c1-2.4 1.53-4.92 1.53-7.5 0-18.23-26.41-33-59-33-32.58 0-59 14.77-59 33 0 2.58.53 5.1 1.53 7.5C81.6 82.89 105.03 72 133 72s51.4 10.89 57.47 25.5Z" fill="#EDECE3"/><path d="M49 94.32C48.93 133.5 78 141 78 141c-5.44-49.55 23.54-65.15 46.53-77.53 2.94-1.58 5.78-3.11 8.44-4.65a309.5 309.5 0 0 0 8.48 4.68C164.43 75.87 193.42 91.48 188 141c0 0 29.07-8.46 29-46.68C216.92 47.15 164.85 3 135 3c-.67 0-1.34.03-2 .09-.67-.06-1.33-.09-2-.09-29.93 0-81.92 44.15-82 91.32Z" fill="#25557c"/><path d="M49.01 95.9c.7 37.8 29 45.1 29 45.1s-29.07-7.07-29-43.97l.01-1.13ZM77.33 129.68c.15-37.86 26.18-51.05 47.2-61.71 11-5.58 20.64-10.47 24.47-17.83 4.13-7.25 5.39-13.94 4.65-19.67-.5 4.37-1.98 9.1-4.65 14.07-3.83 7.82-13.47 13-24.47 18.93-21.14 11.38-47.35 25.49-47.2 66.21Z" fill="#000" fill-opacity=".16"/></g><g transform="translate(49 72)"></g><g transform="translate(62 42)"><g fill-rule="evenodd" clip-rule="evenodd"><path d="M111.71 53.49c4.67.16 8 .88 10.55 4.52 3.01.15 6.25.37 8.98 1.63 3.39 1.56 3.9 5.1-.36 5.59-1.86.2-3.72-.12-5.55-.45l-.19-.03-.33-.06c1.1 9.46-6.21 20.87-14.23 24.35C99.6 93.8 87.34 88.53 81.53 79c-2.62-4.3-4.14-10.51-4.46-15.86-.42-.2-.83-.44-1.23-.67-.38-.22-.76-.44-1.12-.61-2-.98-5.34-1.1-7.5 0-.35.17-.7.37-1.05.58-.42.25-.86.5-1.3.72C64.53 68.5 63.01 74.7 60.4 79c-5.8 9.53-18.07 14.8-29.05 10.04-8.02-3.48-15.33-14.89-14.23-24.35l-.33.06-.2.03c-1.83.33-3.7.66-5.55.45-4.27-.5-3.74-4.03-.36-5.6 2.72-1.25 5.96-1.47 8.97-1.62 2.55-3.63 5.88-4.36 10.55-4.52l23.29-.46c5.19-.14 9.72 0 11.03 4.6a18.7 18.7 0 0 1 6.35-1.25c1.86 0 4.35.45 6.5 1.28 1.3-4.64 5.83-4.77 11.03-4.63l23.3.46Zm-24.03 6.78c-2.37.03-3.5.42-3.9 2.9-.4 2.5 0 5.31.46 7.78.73 3.77 1.92 7.46 4.71 10.22a16.24 16.24 0 0 0 8.32 4.34c.11.03.54.1.96.16.63.1 1.23.18.71.13l-.1-.01h-.06a47.08 47.08 0 0 1 .16 0c3.73.4 7.72.32 10.82-2.04 3.53-2.7 5.95-6.95 7.01-11.2.63-2.48 1.93-8.42-.46-10.4-2.73-2.28-28.63-1.88-28.63-1.88Zm-33.43 0c2.37.03 3.5.42 3.9 2.9.4 2.5 0 5.32-.46 7.78-.73 3.77-1.92 7.46-4.71 10.22a16.23 16.23 0 0 1-8.32 4.35l-.96.15c-.64.1-1.26.19-.68.13-3.73.4-7.74.32-10.85-2.05-3.53-2.69-5.95-6.95-7.01-11.2-.63-2.48-1.93-8.42.46-10.4 2.73-2.28 28.63-1.87 28.63-1.87Zm-10.93 25.5Z" fill="#000" fill-opacity=".1"/><path d="M111.71 51.49c4.67.16 8 .88 10.55 4.52 3.01.15 6.25.37 8.98 1.63 3.39 1.56 3.9 5.1-.36 5.59-1.86.2-3.72-.12-5.55-.45l-.19-.03-.33-.06c1.1 9.46-6.21 20.87-14.23 24.35C99.6 91.8 87.34 86.53 81.53 77c-2.62-4.3-4.14-10.51-4.46-15.86-.42-.2-.83-.44-1.23-.67-.38-.22-.76-.44-1.12-.61-2-.98-5.34-1.1-7.5 0-.35.17-.7.37-1.05.58-.42.25-.86.5-1.3.72C64.53 66.5 63.01 72.7 60.4 77c-5.8 9.53-18.07 14.8-29.05 10.04-8.02-3.48-15.33-14.89-14.23-24.35-.11 0-.22.03-.33.05l-.2.03c-1.83.33-3.7.66-5.55.45-4.27-.5-3.74-4.03-.36-5.6 2.72-1.25 5.96-1.47 8.97-1.62 2.55-3.63 5.88-4.36 10.55-4.52l23.29-.46c5.19-.14 9.72 0 11.03 4.6a18.7 18.7 0 0 1 6.35-1.25c1.86 0 4.35.45 6.5 1.28 1.3-4.64 5.83-4.77 11.03-4.63l23.3.46Zm-24.03 6.78c-2.37.03-3.5.42-3.9 2.9-.4 2.5 0 5.31.46 7.78.73 3.77 1.92 7.46 4.71 10.22a16.24 16.24 0 0 0 8.32 4.34c.11.03.54.1.96.16.63.1 1.23.18.71.13l-.1-.01h-.06a47.08 47.08 0 0 1 .16 0c3.73.4 7.72.32 10.82-2.04 3.53-2.7 5.95-6.95 7.01-11.2.63-2.48 1.93-8.42-.46-10.4-2.73-2.28-28.63-1.88-28.63-1.88Zm-33.43 0c2.37.03 3.5.42 3.9 2.9.4 2.5 0 5.32-.46 7.78-.73 3.77-1.92 7.46-4.71 10.22a16.23 16.23 0 0 1-8.32 4.35l-.96.15c-.64.1-1.26.19-.68.13-3.73.4-7.74.32-10.85-2.05-3.53-2.69-5.95-6.95-7.01-11.2-.63-2.48-1.93-8.42.46-10.4 2.73-2.28 28.63-1.87 28.63-1.87Zm-10.93 25.5Z" fill="#65c9ff"/></g></g></g></g></svg>