<svg xmlns="http://www.w3.org/2000/svg" viewBox="0 0 280 280" fill="none" shape-rendering="auto"><metadata xmlns:rdf="http://www.w3.org/1999/02/22-rdf-syntax-ns#" xmlns:xsi="http://www.w3.org/2001/XMLSchema-instance" xmlns:dc="http://purl.org/dc/elements/1.1/" xmlns:dcterms="http://purl.org/dc/terms/"><rdf:RDF><rdf:Description><dc:title>Avataaars</dc:title><dc:creator>Pablo Stanley</dc:creator><dc:source xsi:type="dcterms:URI">https://avataaars.com/</dc:source><dcterms:license xsi:type="dcterms:URI">https://avataaars.com/</dcterms:license><dc:rights>Remix of „Avataaars” (https://avataaars.com/) by „Pablo Stanley”, licensed under „Free for personal and commercial use” (https://avataaars.com/)</dc:rights></rdf:Description></rdf:RDF></metadata><mask id="viewboxMask"><rect width="280" height="280" rx="0" ry="0" x="0" y="0" fill="#fff" /></mask><g mask="url(#viewboxMask)"><g transform="translate(8)"><path d="M132 36a56 56 0 0 0-56 56v6.17A12 12 0 0 0 66 110v14a12 12 0 0 0 10.3 11.88 56.04 56.04 0 0 0 31.7 44.73v18.4h-4a72 72 0 0 0-72 72v9h200v-9a72 72 0 0 0-72-72h-4v-18.39a56.04 56.04 0 0 0 31.7-44.73A12 12 0 0 0 198 124v-14a12 12 0 0 0-10-11.83V92a56 56 0 0 0-56-56Z" fill="#d08b5b"/><path d="M108 180.61v8a55.79 55.79 0 0 0 24 5.39c8.59 0 16.73-1.93 24-5.39v-8a55.79 55.79 0 0 1-24 5.39 55.79 55.79 0 0 1-24-5.39Z" fill="#000" fill-opacity=".1"/><g transform="translate(0 170)"><path d="M132.5 65.83c27.34 0 49.5-13.2 49.5-29.48 0-1.37-.16-2.7-.46-4.02A72.03 72.03 0 0 1 232 101.05V110H32v-8.95A72.03 72.03 0 0 1 83.53 32a18 18 0 0 0-.53 4.35c0 16.28 22.16 29.48 49.5 29.48Z" fill="#ffffb1"/></g><g transform="translate(78 134)"><path fill-rule="evenodd" clip-rule="evenodd" d="M35.12 29.87a19 19 0 0 1 37.77.09c.08.77-.77 2.04-1.85 2.04H37.1C36 32 35 30.82 35.12 29.87Z" fill="#000" fill-opacity=".7"/><path d="M69.59 32H38.4a11 11 0 0 1 15.6-6.8A11 11 0 0 1 69.59 32Z" fill="#FF4F6D"/><path d="M66.57 17.75A5 5 0 0 1 65 18H44c-.8 0-1.57-.2-2.24-.53A18.92 18.92 0 0 1 54 13c4.82 0 9.22 1.8 12.57 4.75Z" fill="#fff"/></g><g transform="translate(104 122)"><path fill-rule="evenodd" clip-rule="evenodd" d="M16 8c0 4.42 5.37 8 12 8s12-3.58 12-8" fill="#000" fill-opacity=".16"/></g><g transform="translate(76 90)"><path d="M34.5 30.7 29 25.2l-5.5 5.5c-.4.4-1.1.4-1.6 0l-1.6-1.6c-.4-.4-.4-1.1 0-1.6l5.5-5.5-5.5-5.5c-.4-.5-.4-1.2 0-1.6l1.6-1.6c.4-.4 1.1-.4 1.6 0l5.5 5.5 5.5-5.5c.4-.4 1.1-.4 1.6 0l1.6 1.6c.4.4.4 1.1 0 1.6L32.2 22l5.5 5.5c.4.4.4 1.1 0 1.6l-1.6 1.6c-.4.4-1.1.4-1.6 0ZM88.5 30.7 83 25.2l-5.5 5.5c-.4.4-1.1.4-1.6 0l-1.6-1.6c-.4-.4-.4-1.1 0-1.6l5.5-5.5-5.5-5.5c-.4-.5-.4-1.2 0-1.6l1.6-1.6c.4-.4 1.1-.4 1.6 0l5.5 5.5 5.5-5.5c.4-.4 1.1-.4 1.6 0l1.6 1.6c.4.4.4 1.1 0 1.6L86.2 22l5.5 5.5c.4.4.4 1.1 0 1.6l-1.6 1.6c-.4.4-1.1.4-1.6 0Z" fill="#000" fill-opacity=".6"/></g><g transform="translate(76 82)"><path d="M15.63 17.16c3.92-5.51 14.65-8.6 23.9-6.33a2 2 0 1 0 .95-3.88c-10.74-2.64-23.17.94-28.11 7.9a2 2 0 0 0 3.26 2.3ZM96.37 17.16c-3.91-5.51-14.65-8.6-23.9-6.33a2 2 0 1 1-.95-3.88c10.74-2.64 23.17.94 28.11 7.9a2 2 0 0 1-3.26 2.3Z" fill="#000" fill-opacity=".6"/></g><g transform="translate(-1)"><circle cx="133" cy="20" r="20" fill="#F4F4F4"/><path fill-rule="evenodd" clip-rule="evenodd" d="M67 78a66 66 0 1 1 132 0v5H67v-5Z" fill="#65c9ff"/><path fill-rule="evenodd" clip-rule="evenodd" d="M64 69.77a7.05 7.05 0 0 1 3.05-5.96c7.8-5.18 30.42-17.8 66.02-17.8 35.6 0 58.14 12.62 65.9 17.81a7.04 7.04 0 0 1 3.03 5.95v30.2c0 3.3-3.9 5.38-6.78 3.75C184.84 97.83 163.1 88 133.8 88a133.57 133.57 0 0 0-63.17 15.98c-2.85 1.56-6.63-.5-6.63-3.75V69.77Z" fill="#000" fill-opacity=".1"/><path fill-rule="evenodd" clip-rule="evenodd" d="M64 67.77a7.05 7.05 0 0 1 3.05-5.96c7.8-5.18 30.42-17.8 66.02-17.8 35.6 0 58.14 12.62 65.9 17.81a7.04 7.04 0 0 1 3.03 5.95v30.2c0 3.3-3.9 5.38-6.78 3.75C184.84 95.83 163.1 86 133.8 86a133.57 133.57 0 0 0-63.17 15.98c-2.85 1.56-6.63-.5-6.63-3.75V67.77Z" fill="#F4F4F4"/></g><g transform="translate(49 72)"></g><g transform="translate(62 42)"></g></g></g></svg>