<svg xmlns="http://www.w3.org/2000/svg" viewBox="0 0 280 280" fill="none" shape-rendering="auto"><metadata xmlns:rdf="http://www.w3.org/1999/02/22-rdf-syntax-ns#" xmlns:xsi="http://www.w3.org/2001/XMLSchema-instance" xmlns:dc="http://purl.org/dc/elements/1.1/" xmlns:dcterms="http://purl.org/dc/terms/"><rdf:RDF><rdf:Description><dc:title>Avataaars</dc:title><dc:creator>Pablo Stanley</dc:creator><dc:source xsi:type="dcterms:URI">https://avataaars.com/</dc:source><dcterms:license xsi:type="dcterms:URI">https://avataaars.com/</dcterms:license><dc:rights>Remix of „Avataaars” (https://avataaars.com/) by „Pablo Stanley”, licensed under „Free for personal and commercial use” (https://avataaars.com/)</dc:rights></rdf:Description></rdf:RDF></metadata><mask id="viewboxMask"><rect width="280" height="280" rx="0" ry="0" x="0" y="0" fill="#fff" /></mask><g mask="url(#viewboxMask)"><g transform="translate(8)"><path d="M132 36a56 56 0 0 0-56 56v6.17A12 12 0 0 0 66 110v14a12 12 0 0 0 10.3 11.88 56.04 56.04 0 0 0 31.7 44.73v18.4h-4a72 72 0 0 0-72 72v9h200v-9a72 72 0 0 0-72-72h-4v-18.39a56.04 56.04 0 0 0 31.7-44.73A12 12 0 0 0 198 124v-14a12 12 0 0 0-10-11.83V92a56 56 0 0 0-56-56Z" fill="#ae5d29"/><path d="M108 180.61v8a55.79 55.79 0 0 0 24 5.39c8.59 0 16.73-1.93 24-5.39v-8a55.79 55.79 0 0 1-24 5.39 55.79 55.79 0 0 1-24-5.39Z" fill="#000" fill-opacity=".1"/><g transform="translate(0 170)"><path d="M92.68 29.94A72.02 72.02 0 0 0 32 101.05V110h200v-8.95a72.02 72.02 0 0 0-60.68-71.11 23.87 23.87 0 0 1-7.56 13.6l-29.08 26.23a4 4 0 0 1-5.36 0l-29.08-26.23a23.87 23.87 0 0 1-7.56-13.6Z" fill="#262e33"/></g><g transform="translate(78 134)"><path fill-rule="evenodd" clip-rule="evenodd" d="M34 30.4C35.14 19.9 38.24 11 54 11c15.76 0 18.92 8.96 20 19.5.08.84-.83 1.5-1.96 1.5-6.69 0-9.37-1.5-18.05-1.5-8.7 0-13.24 1.5-17.9 1.5-1.15 0-2.2-.55-2.1-1.6Z" fill="#000" fill-opacity=".7"/><path d="M67.86 15.1c-.8.57-1.8.9-2.86.9H44c-1.3 0-2.49-.5-3.38-1.31C43.56 12.38 47.8 11 54 11c6.54 0 10.9 1.54 13.86 4.1Z" fill="#fff"/><path d="M42 25a6 6 0 0 0-6 6v7a6 6 0 0 0 12 0v-2h.08a6 6 0 0 1 11.84 0H60a6 6 0 0 0 12 0v-5a6 6 0 0 0-6-6H42Z" fill="#7BB24B"/><path d="M72 31a6 6 0 0 0-6-6H42a6 6 0 0 0-6 6v6a6 6 0 0 0 12 0v-2h.08a6 6 0 0 1 11.84 0H60a6 6 0 0 0 12 0v-4Z" fill="#88C553"/></g><g transform="translate(104 122)"><path fill-rule="evenodd" clip-rule="evenodd" d="M16 8c0 4.42 5.37 8 12 8s12-3.58 12-8" fill="#000" fill-opacity=".16"/></g><g transform="translate(76 90)"><circle cx="82" cy="22" r="12" fill="#fff"/><circle cx="82" cy="22" r="6" fill="#000" fill-opacity=".7"/><path fill-rule="evenodd" clip-rule="evenodd" d="M16.16 25.45c1.85-3.8 6-6.45 10.84-6.45 4.81 0 8.96 2.63 10.82 6.4.55 1.13-.24 2.05-1.03 1.37a15.05 15.05 0 0 0-9.8-3.43c-3.73 0-7.12 1.24-9.55 3.23-.9.73-1.82-.01-1.28-1.12Z" fill="#000" fill-opacity=".6"/></g><g transform="translate(76 82)"><path d="M44.1 17.12ZM19.27 5.01a7.16 7.16 0 0 0-6.42 2.43c-.6.73-1.56 2.48-1.51 3.42.02.35.22.37 1.12.59 1.65.39 4.5-1.12 6.36-.98 2.58.2 5.04 1.4 7.28 2.68 3.84 2.2 8.35 6.84 13.1 6.6.35-.02 5.41-1.74 4.4-2.72-.31-.49-3.03-1.13-3.5-1.36-2.17-1.09-4.37-2.45-6.44-3.72C29.14 9.18 24.72 5.6 19.28 5ZM68.03 17.12ZM92.91 5.01c2.36-.27 4.85.5 6.42 2.43.6.73 1.56 2.48 1.51 3.42-.02.35-.22.37-1.12.59-1.65.39-4.5-1.12-6.36-.98-2.58.2-5.04 1.4-7.28 2.68-3.84 2.2-8.35 6.84-13.1 6.6-.35-.02-5.41-1.74-4.4-2.72.31-.49 3.03-1.13 3.5-1.36 2.17-1.09 4.36-2.45 6.44-3.72C83.05 9.18 87.46 5.6 92.91 5Z" fill-rule="evenodd" clip-rule="evenodd" fill="#000" fill-opacity=".6"/></g><g transform="translate(-1)"><path d="M50 90.5c0 4.55 1.7 8.64 4.85 10.77.9.61 2.47.93 4.15 1.07V182a8 8 0 0 0 8 8h42v-9.39a56.03 56.03 0 0 1-31.8-45.74A12 12 0 0 1 67 123v-13c0-3.5 1.5-6.63 3.87-8.83 11.54-2.61 24.1-7.53 36.47-14.67 12.13-7 22.5-15.24 30.48-23.75a87.36 87.36 0 0 1-12.45 20.78c12.68-5.52 21.3-14.4 25.9-26.63.37.92.76 1.84 1.17 2.76 10.26 23.03 27.88 39.36 45.77 44.74.5 2.11.79 4.08.79 5.6v13a12 12 0 0 1-10.2 11.87A56.03 56.03 0 0 1 157 180.6V190h18a32 32 0 0 0 32-32v-54.12c0-.07 0-.17-.03-.28-.07-5.64-.28-18.87-.6-21.37A74.01 74.01 0 0 0 132.99 18c-36.08 0-66.14 25.83-73 60-5.52 0-10 5.6-10 12.5Z" fill="#2c1b18"/><path d="M152.44 59.66c11.94 26.81 33.86 44.53 54.56 46.5V92A74 74 0 0 0 60.32 78H60c-5.52 0-10 5.6-10 12.5 0 6.48 3.95 11.81 9 12.44v.15l.95-.1H60a8.1 8.1 0 0 0 1.9-.22C75.7 101 91.68 95.54 107.34 86.5c12.13-7 22.5-15.24 30.48-23.75a87.36 87.36 0 0 1-12.45 20.78c12.68-5.52 21.3-14.4 25.9-26.63.37.92.76 1.84 1.17 2.76Z" fill="#fff" fill-opacity=".08"/></g><g transform="translate(49 72)"></g><g transform="translate(62 42)"><path fill-rule="evenodd" clip-rule="evenodd" d="M39.25 52c-21.13 0-28.63 5.17-29.32 5.86A2.93 2.93 0 0 0 7 60.79v2.92a2.93 2.93 0 0 0 2.93 2.93s5.87 0 5.87 2.93c0 .2 0 .34.03.45-.03.82-.04 1.65-.04 2.48C15.78 85.34 24.07 93 37.96 93h2.75c14.68 0 24.93-8.43 24.93-20.5 0-1.44-.04-2.88-.16-4.28l1.45-.73c.57-.28 1.2-.5 1.87-.64 1.85-.39 3.93-.23 5.95.28.73.18 1.25.36 1.5.46l1.25.5a50.58 50.58 0 0 0-.16 4.4c0 12.84 8.29 20.5 22.17 20.5h2.75c14.68 0 24.93-8.43 24.93-20.5 0-.83 0-1.66-.04-2.48.02-.11.03-.26.03-.45 0-2.93 5.87-2.93 5.87-2.93 1.62 0 2.93-1.3 2.93-2.93V60.8a2.93 2.93 0 0 0-2.93-2.93c-.69-.69-8.2-5.86-29.32-5.86h-2.93c-1.83 0-3.52.07-5.08.21-9.38.56-14.46 2.19-19.63 4.76-.54.2-2.38.79-4.53.88a16.56 16.56 0 0 1-4.77-.92l-.42-.2v-.01c-4.9-2.45-8.36-4.18-20.55-4.61-1.15-.07-2.37-.1-3.66-.1h-2.93Zm-1.12 5.86h1.12c2.44 0 4.59.03 6.48.1 14.05.84 14.05 6.95 14.05 14.54 0 8.62-7.84 14.64-19.06 14.64h-2.75c-13.5 0-16.32-7.96-16.32-14.64 0-8 0-14.37 16.48-14.64Zm26.11 4.36.1.03-.07.03-.03-.06Zm14.52 0-.07.03.04.02c0-.02 0-.03.02-.05Zm16.7-4.12a125.22 125.22 0 0 1 9.4-.24c16.49.27 16.49 6.63 16.49 14.64 0 8.62-7.84 14.64-19.07 14.64h-2.75c-13.48 0-16.31-7.96-16.31-14.64 0-7.25 0-13.15 12.24-14.4Z" fill="#000" fill-opacity=".1"/><path d="M40.72 88.07c13.74 0 22-7.87 22-17.57s-1.3-17.57-20.54-17.57h-2.93c-19.25 0-20.53 7.86-20.53 17.57 0 9.7 5.5 17.57 19.25 17.57h2.75Z" fill="#000" fill-opacity=".7"/><path d="M40.72 88.07c13.74 0 22-7.87 22-17.57s-1.3-17.57-20.54-17.57h-2.93c-19.25 0-20.53 7.86-20.53 17.57 0 9.7 5.5 17.57 19.25 17.57h2.75Z" fill="url(#accessoriesWayfarers-a)" style="mix-blend-mode:screen"/><path d="M102.28 88.07c13.75 0 22-7.87 22-17.57S123 52.93 103.75 52.93h-2.93c-19.25 0-20.53 7.86-20.53 17.57 0 9.7 5.5 17.57 19.24 17.57h2.75Z" fill="#000" fill-opacity=".7"/><path d="M102.28 88.07c13.75 0 22-7.87 22-17.57S123 52.93 103.75 52.93h-2.93c-19.25 0-20.53 7.86-20.53 17.57 0 9.7 5.5 17.57 19.24 17.57h2.75Z" fill="url(#accessoriesWayfarers-b)" style="mix-blend-mode:screen"/><path fill-rule="evenodd" clip-rule="evenodd" d="M39.25 50c-21.13 0-28.63 5.17-29.32 5.86A2.93 2.93 0 0 0 7 58.79v2.92a2.93 2.93 0 0 0 2.93 2.93s5.87 0 5.87 2.93c0 .2 0 .34.03.45-.03.82-.04 1.65-.04 2.48C15.78 83.34 24.07 91 37.96 91h2.75c14.68 0 24.93-8.43 24.93-20.5 0-1.44-.04-2.88-.16-4.28l1.45-.73c.57-.28 1.2-.5 1.87-.64 1.85-.39 3.93-.23 5.95.28.73.18 1.25.36 1.5.46l1.25.5a50.58 50.58 0 0 0-.16 4.4c0 12.84 8.29 20.5 22.17 20.5h2.75c14.68 0 24.93-8.43 24.93-20.5 0-.83 0-1.66-.04-2.48.02-.11.03-.26.03-.45 0-2.93 5.87-2.93 5.87-2.93 1.62 0 2.93-1.3 2.93-2.93V58.8a2.93 2.93 0 0 0-2.93-2.93c-.69-.69-8.2-5.86-29.32-5.86h-2.93c-1.83 0-3.52.07-5.08.21-9.38.56-14.46 2.19-19.63 4.76-.54.2-2.38.79-4.53.88a16.56 16.56 0 0 1-4.77-.92l-.42-.2v-.01c-4.9-2.45-8.36-4.18-20.55-4.61-1.15-.07-2.37-.1-3.66-.1h-2.93Zm-1.12 5.86h1.12c2.44 0 4.59.03 6.48.1 14.05.84 14.05 6.95 14.05 14.54 0 8.62-7.84 14.64-19.06 14.64h-2.75c-13.5 0-16.32-7.96-16.32-14.64 0-8 0-14.37 16.48-14.64Zm26.11 4.36.1.03-.07.03-.03-.06Zm14.52 0-.07.03.04.02c0-.02 0-.03.02-.05Zm16.7-4.12a125.22 125.22 0 0 1 9.4-.24c16.49.27 16.49 6.63 16.49 14.64 0 8.62-7.84 14.64-19.07 14.64h-2.75c-13.48 0-16.31-7.96-16.31-14.64 0-7.25 0-13.15 12.24-14.4Z" fill="#262e33"/><defs><linearGradient id="accessoriesWayfarers-a" x1="80.29" y1="52.93" x2="80.29" y2="88.07" gradientUnits="userSpaceOnUse"><stop stop-color="#fff" stop-opacity=".5"/><stop offset=".71" stop-opacity=".5"/></linearGradient><linearGradient id="accessoriesWayfarers-b" x1="80.29" y1="52.93" x2="80.29" y2="88.07" gradientUnits="userSpaceOnUse"><stop stop-color="#fff" stop-opacity=".5"/><stop offset=".71" stop-opacity=".5"/></linearGradient></defs></g></g></g></svg>