<svg xmlns="http://www.w3.org/2000/svg" viewBox="0 0 280 280" fill="none" shape-rendering="auto"><metadata xmlns:rdf="http://www.w3.org/1999/02/22-rdf-syntax-ns#" xmlns:xsi="http://www.w3.org/2001/XMLSchema-instance" xmlns:dc="http://purl.org/dc/elements/1.1/" xmlns:dcterms="http://purl.org/dc/terms/"><rdf:RDF><rdf:Description><dc:title>Avataaars</dc:title><dc:creator>Pablo Stanley</dc:creator><dc:source xsi:type="dcterms:URI">https://avataaars.com/</dc:source><dcterms:license xsi:type="dcterms:URI">https://avataaars.com/</dcterms:license><dc:rights>Remix of „Avataaars” (https://avataaars.com/) by „Pablo Stanley”, licensed under „Free for personal and commercial use” (https://avataaars.com/)</dc:rights></rdf:Description></rdf:RDF></metadata><mask id="viewboxMask"><rect width="280" height="280" rx="0" ry="0" x="0" y="0" fill="#fff" /></mask><g mask="url(#viewboxMask)"><g transform="translate(8)"><path d="M132 36a56 56 0 0 0-56 56v6.17A12 12 0 0 0 66 110v14a12 12 0 0 0 10.3 11.88 56.04 56.04 0 0 0 31.7 44.73v18.4h-4a72 72 0 0 0-72 72v9h200v-9a72 72 0 0 0-72-72h-4v-18.39a56.04 56.04 0 0 0 31.7-44.73A12 12 0 0 0 198 124v-14a12 12 0 0 0-10-11.83V92a56 56 0 0 0-56-56Z" fill="#614335"/><path d="M108 180.61v8a55.79 55.79 0 0 0 24 5.39c8.59 0 16.73-1.93 24-5.39v-8a55.79 55.79 0 0 1-24 5.39 55.79 55.79 0 0 1-24-5.39Z" fill="#000" fill-opacity=".1"/><g transform="translate(0 170)"><path d="M132.5 54C151 54 166 44.37 166 32.5c0-1.1-.13-2.18-.38-3.23A72 72 0 0 1 232 101.05V110H32v-8.95A72 72 0 0 1 99.4 29.2a14.1 14.1 0 0 0-.4 3.3C99 44.37 114 54 132.5 54Z" fill="#ff5c5c"/><g transform="translate(77 58)"><g fill-rule="evenodd" clip-rule="evenodd" fill="#fff"><path d="M65.93 25.4c-4.08 1.37-8.55 3.31-10.9 7.06-1.85 2.95-1.97-.45-4.55.6-2.5 1.02-1.82 5.22-2.73 7.3-.71-1.2-1.05-2.52-1.94-3.6a6.6 6.6 0 0 0 1.81-1.73c.16-.32-4.79.35-5.07.43-1.41.4-2.74.77-4.09 1.43a78.83 78.83 0 0 0 1.96-2.99c.21-.68.58-.68 1.11 0 .75.03 1.18.35 1.96.17 2.92-.66 3.85-6.22.25-5.98a93.38 93.38 0 0 0 4.26-8.8c.5 4.28 6.08 2.8 7.72.52 2.14-3-.6-8.66-4.49-8.11.58-1.38 1.17-2.77 1.65-4.18 1.1 1.6 3 2.39 4.54 3.45a18.2 18.2 0 0 1 4.16 4.01c2.4 3.14 3.8 7 6.22 10.05-.64.04-1.26.16-1.87.36Zm9-4.4c-.62-5.75-5.14-11.6-9.43-15.17-2.55-2.13-10.24-7.39-13.3-3.34 2.46 1.07 5.2 1.33 7.64 2.49 3.32 1.57 5.92 4.16 8.17 7.05 3.14 4.05 7.97 12.28.48 14.39.5-.34.8-.71 1.21-1.31-1-.23-.6-1.88-.95-2.95-.41-1.25-1.21-2.47-1.89-3.59a56.62 56.62 0 0 0-3.5-5.17A23.46 23.46 0 0 0 57.4 8c-.9-.58-1.77-1.1-2.81-1.4-1.35-.4-.91.08-1.28-1.15-.23-.78-.02-1.77-.25-2.6-1.97 1.66-2.6 4.06-3.5 6.39-1.01 2.68-2.12 5.33-3.2 8-2.63 6.53-6.02 12.39-9.88 18.24-.67 1.02-2.17 2.95-1.1 4.17.97 1.1 2.34.3 3.4-.13 1.43-.6 3.38-2.17 4.93-1.35 2 1.05 1.05 4.98 4.21 4.83 3.12-.16 2.53-5.28 3.53-7.32 2.31 1.68 4.18.64 5.58-1.61 1.63-2.61 3.77-3.66 6.51-4.94 1.12-.52 3.04-1.94 4.2-2.12.97-.13 1.9.9 3.19.85 3.1-.11 4.39-4.25 4.02-6.85Z"/><path d="M53.54 23.83c-2.43-.44-5.8-.07-6.03 3.16-.14 1.97 1.4 3.85 3.08 4.66 5.12 2.5 9.1-6.69 2.95-7.82ZM63.34 20.16c-.65-.7-1.7-1.24-2.68-1 .31-.2.57-.6.87-.83-3.16-2.29-5.14 3.47-3.35 5.74 2.72 3.44 8.04-.76 5.16-3.91Z"/></g></g></g><g transform="translate(78 134)"><path fill-rule="evenodd" clip-rule="evenodd" d="M34 38.86C35.14 24.88 38.24 13.01 54 13c15.76 0 18.92 11.94 20 26 .08 1.12-.83 2-1.96 2-6.69 0-9.37-2-18.05-2-8.7 0-13.24 2-17.9 2-1.15 0-2.2-.74-2.1-2.14Z" fill="#000" fill-opacity=".7"/><path d="M67.02 17.57c-.61.28-1.3.43-2.02.43H44c-.98 0-1.9-.28-2.67-.77C44.23 14.57 48.28 13 54 13c5.95 0 10.1 1.7 13.02 4.57Z" fill="#fff"/><path d="M69.8 40.92a44.2 44.2 0 0 1-5.54-.82c-2.73-.53-5.65-1.1-10.27-1.1-5.02 0-8.66.66-11.74 1.23-1.45.26-2.77.5-4.06.65A11 11 0 0 1 54 33.2a11 11 0 0 1 15.8 7.72Z" fill="#FF4F6D"/></g><g transform="translate(104 122)"><path fill-rule="evenodd" clip-rule="evenodd" d="M16 8c0 4.42 5.37 8 12 8s12-3.58 12-8" fill="#000" fill-opacity=".16"/></g><g transform="translate(76 90)"><path d="M44 20.73c0 4.26-6.27 7.72-14 7.72S16 25 16 20.73C16 16.46 22.27 13 30 13s14 3.46 14 7.73ZM96 20.73c0 4.26-6.27 7.72-14 7.72S68 25 68 20.73C68 16.46 74.27 13 82 13s14 3.46 14 7.73Z" fill="#fff"/><path d="M32.82 28.3a25.15 25.15 0 0 1-5.64 0 6 6 0 1 1 5.64 0ZM84.82 28.3a25.15 25.15 0 0 1-5.64 0 6 6 0 1 1 5.64 0Z" fill="#000" fill-opacity=".7"/></g><g transform="translate(76 82)"><path d="M15.98 17.13C17.48 7.6 30.06 1.1 39.16 5.3a2 2 0 1 0 1.68-3.63c-11.5-5.3-26.9 2.66-28.82 14.84a2 2 0 0 0 3.96.63ZM96.02 17.13C94.52 7.6 81.94 1.1 72.84 5.3a2 2 0 1 1-1.68-3.63c11.5-5.3 26.9 2.66 28.82 14.84a2 2 0 0 1-3.96.63Z" fill="#000" fill-opacity=".6"/></g><g transform="translate(-1)"><path fill-rule="evenodd" clip-rule="evenodd" d="M193.76 70.77a62.92 62.92 0 0 0-1.51-9.86 51.78 51.78 0 0 0-2.5-7.49c-.6-1.48-2.02-3.52-2.19-5.13-.16-1.57 1.07-3.32 1.33-5.16.24-1.79.2-3.66-.17-5.44-.83-4.03-3.6-7.77-7.85-8.82-.95-.23-2.97.06-3.64-.5-.77-.63-1.3-2.8-2-3.67-2-2.47-5.1-4.07-8.37-3.51-2.41.4-1.03.9-2.84-.51-1-.8-1.75-2-2.73-2.85a24.7 24.7 0 0 0-4.9-3.28 50.82 50.82 0 0 0-14.84-4.91c-9.28-1.52-19.2-.2-28.2 2.22a74.58 74.58 0 0 0-13.14 4.74c-1.78.87-2.81 1.58-4.67 1.81-2.93.36-5.4.34-8.18 1.58-8.54 3.82-12.39 12.69-9.06 21.17.66 1.71 1.57 3.21 2.82 4.59 1.52 1.68 2.07 1.35.76 3.28a52.78 52.78 0 0 0-4.96 9.17c-3.53 8.4-4.12 17.87-3.89 26.83.08 3.13.22 6.3.71 9.42.22 1.34.28 3.87 1.29 4.87.5.5 1.24.78 1.96.58 1.71-.47 1.13-1.73 1.17-2.9.2-5.88-.08-11.08 1.32-16.9a44.4 44.4 0 0 1 5-12.03 72.07 72.07 0 0 1 9.8-13.35c.92-.99 1.12-1.4 2.35-1.48.93-.05 2.3.59 3.2.8 2 .5 4 .98 6.03 1.3 3.74.6 7.45.65 11.22.53 7.43-.23 14.88-.75 22.09-2.62 4.78-1.24 9.02-3.47 13.6-5.1.08-.04 1.23-.85 1.43-.82.28.04 1.97 1.82 2.26 2.05 2.23 1.74 4.67 2.48 7.07 3.83 2.97 1.66.1-.72 1.73 1.36.48.6.72 1.72 1.1 2.4 1.22 2.2 2.9 4.1 4.93 5.63 1.96 1.47 4.9 2.18 5.9 4.1.76 1.47 1.02 3.48 1.64 5.06 1.63 4.13 3.78 7.99 5.93 11.88 1.73 3.14 3.62 5.89 3.81 9.47.07 1.25-1.12 8.74 1.78 6.46.43-.34 1.35-4.15 1.54-4.8.77-2.63 1.05-5.38 1.4-8.09.69-5.38.92-10.5.46-15.91Z" fill="#2c1b18"/></g><g transform="translate(49 72)"></g><g transform="translate(62 42)"></g></g></g></svg>