<svg xmlns="http://www.w3.org/2000/svg" viewBox="0 0 280 280" fill="none" shape-rendering="auto"><metadata xmlns:rdf="http://www.w3.org/1999/02/22-rdf-syntax-ns#" xmlns:xsi="http://www.w3.org/2001/XMLSchema-instance" xmlns:dc="http://purl.org/dc/elements/1.1/" xmlns:dcterms="http://purl.org/dc/terms/"><rdf:RDF><rdf:Description><dc:title>Avataaars</dc:title><dc:creator>Pablo Stanley</dc:creator><dc:source xsi:type="dcterms:URI">https://avataaars.com/</dc:source><dcterms:license xsi:type="dcterms:URI">https://avataaars.com/</dcterms:license><dc:rights>Remix of „Avataaars” (https://avataaars.com/) by „Pablo Stanley”, licensed under „Free for personal and commercial use” (https://avataaars.com/)</dc:rights></rdf:Description></rdf:RDF></metadata><mask id="viewboxMask"><rect width="280" height="280" rx="0" ry="0" x="0" y="0" fill="#fff" /></mask><g mask="url(#viewboxMask)"><g transform="translate(8)"><path d="M132 36a56 56 0 0 0-56 56v6.17A12 12 0 0 0 66 110v14a12 12 0 0 0 10.3 11.88 56.04 56.04 0 0 0 31.7 44.73v18.4h-4a72 72 0 0 0-72 72v9h200v-9a72 72 0 0 0-72-72h-4v-18.39a56.04 56.04 0 0 0 31.7-44.73A12 12 0 0 0 198 124v-14a12 12 0 0 0-10-11.83V92a56 56 0 0 0-56-56Z" fill="#d08b5b"/><path d="M108 180.61v8a55.79 55.79 0 0 0 24 5.39c8.59 0 16.73-1.93 24-5.39v-8a55.79 55.79 0 0 1-24 5.39 55.79 55.79 0 0 1-24-5.39Z" fill="#000" fill-opacity=".1"/><g transform="translate(0 170)"><path d="M132.5 54C151 54 166 44.37 166 32.5c0-1.1-.13-2.18-.38-3.23A72 72 0 0 1 232 101.05V110H32v-8.95A72 72 0 0 1 99.4 29.2a14.1 14.1 0 0 0-.4 3.3C99 44.37 114 54 132.5 54Z" fill="#25557c"/><g transform="translate(77 58)"><path fill-rule="evenodd" clip-rule="evenodd" d="M65.28 19.93c-.3 2.78-5.7 4.27-7.67 2.45-.91-.84-.93-2.58-1.13-3.7a48.65 48.65 0 0 1-.75-6.43c-.06-1.32-.4-2.38 1.04-2.58.89-.12 1.8.47 2.52.93 2.44 1.58 6.32 6.14 5.98 9.33Zm-12.4-5.85c.29 2.82 1.32 7.73-.93 10.1-2.02 2.12-6.16.02-6.79-2.47-.77-3.1 2.28-6.78 4.15-8.87.58-.64 1.85-2.41 2.84-1.82.39.23.7 2.61.74 3.06Zm1.44 11.03c.65-1.53 6.91 3.01 3.95 5.18-.48.35-4.16 1.46-4.86.94-1.48-1.1.43-4.97.91-6.12Zm19-7.58C72.89 2.05 53.08-2.31 42.49 6.5 38.43 9.88 36.1 14 36 19.28c-.1 4.47.62 8.7 4.03 11.77 1.48 1.33 2.46 2.15 3.25 3.97.82 1.9 1.2 4.33 2.74 5.83.85.83 2.09 1.5 3.26.96 2.17-.98 1.47-3.98 2.13-5.65 2.04 4.97 7.21 6.55 8.15.25 1.03 1.82 3.72 4.2 5.7 2.2.81-.8.93-2.14 1.07-3.22.25-1.9-.18-2.66 1.36-3.97 4.03-3.45 5.77-8.67 5.63-13.9Z" fill="#fff"/></g></g><g transform="translate(78 134)"><path fill-rule="evenodd" clip-rule="evenodd" d="M35.12 15.13a19 19 0 0 0 37.77-.09c.08-.77-.77-2.04-1.85-2.04H37.1C36 13 35 14.18 35.12 15.13Z" fill="#000" fill-opacity=".7"/><path d="M70 13H39a5 5 0 0 0 5 5h21a5 5 0 0 0 5-5Z" fill="#fff"/><path d="M66.7 27.14A10.96 10.96 0 0 0 54 25.2a10.95 10.95 0 0 0-12.7 1.94A18.93 18.93 0 0 0 54 32c4.88 0 9.33-1.84 12.7-4.86Z" fill="#FF4F6D"/></g><g transform="translate(104 122)"><path fill-rule="evenodd" clip-rule="evenodd" d="M16 8c0 4.42 5.37 8 12 8s12-3.58 12-8" fill="#000" fill-opacity=".16"/></g><g transform="translate(76 90)"><g fill="#000" fill-opacity=".6"><path d="M36 22a6 6 0 1 1-12 0 6 6 0 0 1 12 0Z"/><path fill-rule="evenodd" clip-rule="evenodd" d="M70.6 24.96c1.59-3.92 5.55-6.86 10.37-7.2 4.8-.33 9.12 2 11.24 5.64.63 1.09-.1 2.06-.93 1.43-2.6-1.93-6.15-3-10-2.73A15.13 15.13 0 0 0 71.95 26c-.84.78-1.81.1-1.35-1.04Z"/></g></g><g transform="translate(76 82)"><path d="M38.66 11.1c-5 .35-9.92.08-14.92-.13-3.83-.16-7.72-.68-11.37 1.01-.7.32-4.53 2.28-4.44 3.35.07.85 3.93 2.2 4.63 2.44 3.67 1.29 7.18.9 10.95.66 4.64-.27 9.25-.07 13.87-.2 3.12-.1 7.92-.63 9.46-4.4.46-1.14.1-3.42-.36-4.66-.19-.5-.72-.69-1.13-.4a15.04 15.04 0 0 1-6.68 2.32ZM73.34 11.1c5 .35 9.92.08 14.92-.13 3.83-.16 7.72-.68 11.37 1.01.7.32 4.53 2.28 4.44 3.35-.07.85-3.93 2.2-4.63 2.44-3.67 1.29-7.18.9-10.95.66-4.63-.27-9.24-.07-13.86-.2-3.12-.1-7.92-.63-9.46-4.4-.46-1.14-.1-3.42.36-4.66.18-.5.72-.69 1.13-.4a15.04 15.04 0 0 0 6.68 2.32Z" fill-rule="evenodd" clip-rule="evenodd" fill="#000" fill-opacity=".6"/></g><g transform="translate(-1)"><path d="M250 70.5c0 .8-.03 1.6-.1 2.37A57.74 57.74 0 0 1 261 107c0 7.16-1.3 14.01-3.67 20.34a28.47 28.47 0 0 1-11.78 29.71 53.5 53.5 0 0 1-53.86 29.64A36.35 36.35 0 0 1 168.5 195c-4.02 0-7.88-.65-11.5-1.85v-12.54a56.03 56.03 0 0 0 31.8-45.74A12 12 0 0 0 199 123v-13a12 12 0 0 0-10-11.83V92a56 56 0 0 0-2.22-15.68l1.37 12.87-11.34-24-45.13-19.52-30.12 10.56-21.5 20.19-.04-2.6A55.93 55.93 0 0 0 77 92v6.17A12 12 0 0 0 67 110v13a12 12 0 0 0 10.2 11.87A56.03 56.03 0 0 0 109 180.6v10.94A36.36 36.36 0 0 1 93.5 195c-8.8 0-16.88-3.12-23.19-8.31a53.5 53.5 0 0 1-53.86-29.63 28.47 28.47 0 0 1-11.78-29.72A57.87 57.87 0 0 1 1 107a57.74 57.74 0 0 1 11.1-34.13 28.5 28.5 0 0 1 16-28.04 55.02 55.02 0 0 1 47.55-31.78 28.4 28.4 0 0 1 26.6-7.24A83.78 83.78 0 0 1 133 0a83.82 83.82 0 0 1 29.4 5.3 28.4 28.4 0 0 1 23.94 7.76 55.02 55.02 0 0 1 47.56 31.77A28.5 28.5 0 0 1 250 70.5Z" fill="#ecdcbf"/><path d="M188.37 98.97c.41-2.55.63-5.16.63-7.82C189 62.35 163.7 39 132.5 39S76 62.35 76 91.15c0 2.66.22 5.27.63 7.82 4.1-25.09 27.55-44.32 55.87-44.32 28.32 0 51.78 19.23 55.87 44.32Z" fill="#92D9FF"/></g><g transform="translate(49 72)"></g><g transform="translate(62 42)"></g></g></g></svg>