<svg xmlns="http://www.w3.org/2000/svg" viewBox="0 0 280 280" fill="none" shape-rendering="auto"><metadata xmlns:rdf="http://www.w3.org/1999/02/22-rdf-syntax-ns#" xmlns:xsi="http://www.w3.org/2001/XMLSchema-instance" xmlns:dc="http://purl.org/dc/elements/1.1/" xmlns:dcterms="http://purl.org/dc/terms/"><rdf:RDF><rdf:Description><dc:title>Avataaars</dc:title><dc:creator>Pablo Stanley</dc:creator><dc:source xsi:type="dcterms:URI">https://avataaars.com/</dc:source><dcterms:license xsi:type="dcterms:URI">https://avataaars.com/</dcterms:license><dc:rights>Remix of „Avataaars” (https://avataaars.com/) by „Pablo Stanley”, licensed under „Free for personal and commercial use” (https://avataaars.com/)</dc:rights></rdf:Description></rdf:RDF></metadata><mask id="viewboxMask"><rect width="280" height="280" rx="0" ry="0" x="0" y="0" fill="#fff" /></mask><g mask="url(#viewboxMask)"><g transform="translate(8)"><path d="M132 36a56 56 0 0 0-56 56v6.17A12 12 0 0 0 66 110v14a12 12 0 0 0 10.3 11.88 56.04 56.04 0 0 0 31.7 44.73v18.4h-4a72 72 0 0 0-72 72v9h200v-9a72 72 0 0 0-72-72h-4v-18.39a56.04 56.04 0 0 0 31.7-44.73A12 12 0 0 0 198 124v-14a12 12 0 0 0-10-11.83V92a56 56 0 0 0-56-56Z" fill="#fd9841"/><path d="M108 180.61v8a55.79 55.79 0 0 0 24 5.39c8.59 0 16.73-1.93 24-5.39v-8a55.79 55.79 0 0 1-24 5.39 55.79 55.79 0 0 1-24-5.39Z" fill="#000" fill-opacity=".1"/><g transform="translate(0 170)"><path d="M196 38.63V110H68V38.63a71.52 71.52 0 0 1 26-8.94v44.3h76V29.69a71.52 71.52 0 0 1 26 8.94Z" fill="#ff488e"/><path d="M86 83a5 5 0 1 1-10 0 5 5 0 0 1 10 0ZM188 83a5 5 0 1 1-10 0 5 5 0 0 1 10 0Z" fill="#F4F4F4"/></g><g transform="translate(78 134)"><rect x="42" y="18" width="24" height="6" rx="3" fill="#000" fill-opacity=".7"/></g><g transform="translate(104 122)"><path fill-rule="evenodd" clip-rule="evenodd" d="M16 8c0 4.42 5.37 8 12 8s12-3.58 12-8" fill="#000" fill-opacity=".16"/></g><g transform="translate(76 90)"><path d="M44 22a14 14 0 1 1-28 0 14 14 0 0 1 28 0ZM96 22a14 14 0 1 1-28 0 14 14 0 0 1 28 0Z" fill="#fff"/><path d="M36 22a6 6 0 1 1-12 0 6 6 0 0 1 12 0ZM88 22a6 6 0 1 1-12 0 6 6 0 0 1 12 0Z" fill="#000" fill-opacity=".7"/></g><g transform="translate(76 82)"><path d="M36.37 6.88c-1.97 2.9-5.55 4.64-8.74 5.68-3.94 1.29-18.55 3.38-15.11 11.35.05.12.22.12.27 0 1.15-2.65 17.47-5.12 18.97-5.7 4.45-1.71 8.4-5.5 9.17-10.55.35-2.31-.64-6.05-1.55-7.55-.11-.18-.37-.13-.43.07-.36 1.33-1.41 4.97-2.58 6.7ZM75.63 6.88c1.97 2.9 5.55 4.64 8.74 5.68 3.94 1.29 18.55 3.38 15.11 11.35a.15.15 0 0 1-.27 0c-1.15-2.65-17.47-5.12-18.97-5.7-4.45-1.71-8.4-5.5-9.17-10.55-.35-2.31.64-6.05 1.55-7.55.11-.18.37-.13.43.07.36 1.33 1.41 4.97 2.58 6.7Z" fill-rule="evenodd" clip-rule="evenodd" fill="#000" fill-opacity=".6"/></g><g transform="translate(-1)"><path d="M250 70.5c0 .8-.03 1.6-.1 2.37A57.74 57.74 0 0 1 261 107c0 7.16-1.3 14.01-3.67 20.34a28.47 28.47 0 0 1-11.78 29.71 53.5 53.5 0 0 1-53.86 29.64A36.35 36.35 0 0 1 168.5 195c-4.02 0-7.88-.65-11.5-1.85v-12.54a56.03 56.03 0 0 0 31.8-45.74A12 12 0 0 0 199 123v-13a12 12 0 0 0-10-11.83V92a56 56 0 0 0-2.22-15.68l1.37 12.87-11.34-24-45.13-19.52-30.12 10.56-21.5 20.19-.04-2.6A55.93 55.93 0 0 0 77 92v6.17A12 12 0 0 0 67 110v13a12 12 0 0 0 10.2 11.87A56.03 56.03 0 0 0 109 180.6v10.94A36.36 36.36 0 0 1 93.5 195c-8.8 0-16.88-3.12-23.19-8.31a53.5 53.5 0 0 1-53.86-29.63 28.47 28.47 0 0 1-11.78-29.72A57.87 57.87 0 0 1 1 107a57.74 57.74 0 0 1 11.1-34.13 28.5 28.5 0 0 1 16-28.04 55.02 55.02 0 0 1 47.55-31.78 28.4 28.4 0 0 1 26.6-7.24A83.78 83.78 0 0 1 133 0a83.82 83.82 0 0 1 29.4 5.3 28.4 28.4 0 0 1 23.94 7.76 55.02 55.02 0 0 1 47.56 31.77A28.5 28.5 0 0 1 250 70.5Z" fill="#d6b370"/><path d="M188.37 98.97c.41-2.55.63-5.16.63-7.82C189 62.35 163.7 39 132.5 39S76 62.35 76 91.15c0 2.66.22 5.27.63 7.82 4.1-25.09 27.55-44.32 55.87-44.32 28.32 0 51.78 19.23 55.87 44.32Z" fill="#92D9FF"/></g><g transform="translate(49 72)"><path d="M57.55 69.68a31.8 31.8 0 0 1 4.84-2.55C67.58 65.15 77.2 65.71 84 69.3c6.8-3.59 16.42-4.15 21.61-2.17 1.64.63 3.22 1.57 4.84 2.55 4.13 2.47 8.55 5.12 14.91 3.15.37-.12.73.22.62.58-1.37 4.5-9 7.6-11.6 7.7-6.2.24-11.75-2.26-17.13-4.69-4.44-2-8.77-3.96-13.25-4.26-4.48.3-8.8 2.26-13.25 4.26-5.38 2.43-10.92 4.93-17.13 4.69-2.6-.1-10.23-3.2-11.6-7.7-.11-.36.25-.7.62-.58 6.36 1.97 10.78-.68 14.9-3.15Z" fill="#724133"/></g><g transform="translate(62 42)"><g fill-rule="evenodd" clip-rule="evenodd"><path d="M38.5 52c-21.3 0-28.85 5.1-29.55 5.77A2.92 2.92 0 0 0 6 60.66v2.88c0 1.6 1.32 2.89 2.95 2.89 0 0 5.91 0 5.91 2.88 0 .44.07.65.19.68-.04.82-.05 1.66-.05 2.5C15 85.34 23.31 93 37.24 93H40c14.72 0 25-8.43 25-20.5 0-1.5-.04-3-.17-4.46l1.58-.77c.58-.29 1.21-.5 1.9-.64 1.85-.38 3.95-.22 5.99.28.73.18 1.26.35 1.5.45l1.38.55c-.14 1.5-.18 3.04-.18 4.6C77 85.34 85.31 93 99.24 93H102c14.72 0 25-8.43 25-20.5 0-1.54-.04-3.07-.18-4.56 1.74-1.51 6.22-1.51 6.22-1.51a2.92 2.92 0 0 0 2.96-2.89v-2.88c0-1.6-1.32-2.89-2.96-2.89-.69-.67-8.25-5.77-29.54-5.77H100.53c-1.8 0-3.44.07-4.97.2-9.54.54-14.68 2.15-19.92 4.7a17 17 0 0 1-4.56.87 17.01 17.01 0 0 1-4.81-.91l-.42-.2v-.01c-4.94-2.42-8.43-4.13-20.78-4.55a61.2 61.2 0 0 0-3.6-.1H38.5ZM19 73.5C19 64.84 19 58 38.39 58h3.22C61 58 61 64.84 61 73.5 61 82.63 52.36 89 40 89h-3.03C22.12 89 19 80.57 19 73.5Zm62 0c0-8.66 0-15.5 19.39-15.5h3.22C123 58 123 64.84 123 73.5c0 9.13-8.64 15.5-21 15.5h-3.03C84.12 89 81 80.57 81 73.5Z" fill="#000" fill-opacity=".1"/><path d="M38.5 50c-21.3 0-28.85 5.1-29.55 5.77A2.92 2.92 0 0 0 6 58.66v2.88c0 1.6 1.32 2.89 2.95 2.89 0 0 5.91 0 5.91 2.88 0 .44.07.65.19.68-.04.82-.05 1.66-.05 2.5C15 83.34 23.31 91 37.24 91H40c14.72 0 25-8.43 25-20.5 0-1.5-.04-3-.17-4.46l1.58-.77c.58-.29 1.21-.5 1.9-.64 1.85-.38 3.95-.22 5.99.28.73.18 1.26.35 1.5.45l1.38.55c-.14 1.5-.18 3.04-.18 4.6C77 83.34 85.31 91 99.24 91H102c14.72 0 25-8.43 25-20.5 0-1.54-.04-3.07-.18-4.56 1.74-1.51 6.22-1.51 6.22-1.51a2.92 2.92 0 0 0 2.96-2.89v-2.88c0-1.6-1.32-2.89-2.96-2.89-.69-.67-8.25-5.77-29.54-5.77H100.53c-1.8 0-3.44.07-4.97.2-9.54.54-14.68 2.15-19.92 4.7a17 17 0 0 1-4.56.87 17.01 17.01 0 0 1-4.81-.91l-.42-.2v-.01c-4.94-2.42-8.43-4.13-20.78-4.55a61.2 61.2 0 0 0-3.6-.1H38.5ZM19 71.5C19 62.84 19 56 38.39 56h3.22C61 56 61 62.84 61 71.5 61 80.63 52.36 87 40 87h-3.03C22.12 87 19 78.57 19 71.5Zm62 0c0-8.66 0-15.5 19.39-15.5h3.22C123 56 123 62.84 123 71.5c0 9.13-8.64 15.5-21 15.5h-3.03C84.12 87 81 78.57 81 71.5Z" fill="#5199e4"/></g></g></g></g></svg>