<svg xmlns="http://www.w3.org/2000/svg" viewBox="0 0 280 280" fill="none" shape-rendering="auto"><metadata xmlns:rdf="http://www.w3.org/1999/02/22-rdf-syntax-ns#" xmlns:xsi="http://www.w3.org/2001/XMLSchema-instance" xmlns:dc="http://purl.org/dc/elements/1.1/" xmlns:dcterms="http://purl.org/dc/terms/"><rdf:RDF><rdf:Description><dc:title>Avataaars</dc:title><dc:creator>Pablo Stanley</dc:creator><dc:source xsi:type="dcterms:URI">https://avataaars.com/</dc:source><dcterms:license xsi:type="dcterms:URI">https://avataaars.com/</dcterms:license><dc:rights>Remix of „Avataaars” (https://avataaars.com/) by „Pablo Stanley”, licensed under „Free for personal and commercial use” (https://avataaars.com/)</dc:rights></rdf:Description></rdf:RDF></metadata><mask id="viewboxMask"><rect width="280" height="280" rx="0" ry="0" x="0" y="0" fill="#fff" /></mask><g mask="url(#viewboxMask)"><g transform="translate(8)"><path d="M132 36a56 56 0 0 0-56 56v6.17A12 12 0 0 0 66 110v14a12 12 0 0 0 10.3 11.88 56.04 56.04 0 0 0 31.7 44.73v18.4h-4a72 72 0 0 0-72 72v9h200v-9a72 72 0 0 0-72-72h-4v-18.39a56.04 56.04 0 0 0 31.7-44.73A12 12 0 0 0 198 124v-14a12 12 0 0 0-10-11.83V92a56 56 0 0 0-56-56Z" fill="#fd9841"/><path d="M108 180.61v8a55.79 55.79 0 0 0 24 5.39c8.59 0 16.73-1.93 24-5.39v-8a55.79 55.79 0 0 1-24 5.39 55.79 55.79 0 0 1-24-5.39Z" fill="#000" fill-opacity=".1"/><g transform="translate(0 170)"><path d="M100.37 29.14a27.6 27.6 0 0 1 7.63-7.57v15.3c0 5.83 3.98 10.98 10.08 14.13l-.08.06.9 2.86c3.89 2 8.35 3.13 13.1 3.13s9.21-1.13 13.1-3.13l.9-2.86-.08-.06c6.1-3.15 10.08-8.3 10.08-14.12v-14.6a27.1 27.1 0 0 1 6.6 6.82 72 72 0 0 1 69.4 71.95V110H32v-8.95a72 72 0 0 1 68.37-71.9Z" fill="#ffffb1"/><path d="M108 21.57c-6.77 4.6-11 11.17-11 18.46 0 7.4 4.36 14.05 11.3 18.66l6.12-4.81 4.58.33-1-3.15.08-.06c-6.1-3.15-10.08-8.3-10.08-14.12v-15.3ZM156 36.88c0 5.82-3.98 10.97-10.08 14.12l.08.06-1 3.15 4.58-.33 5.65 4.45c6.63-4.6 10.77-11.1 10.77-18.3 0-6.92-3.82-13.2-10-17.75v14.6Z" fill="#fff" fill-opacity=".75"/></g><g transform="translate(78 134)"><path fill-rule="evenodd" clip-rule="evenodd" d="M35.12 15.13a19 19 0 0 0 37.77-.09c.08-.77-.77-2.04-1.85-2.04H37.1C36 13 35 14.18 35.12 15.13Z" fill="#000" fill-opacity=".7"/><path d="M70 13H39a5 5 0 0 0 5 5h21a5 5 0 0 0 5-5Z" fill="#fff"/><path d="M66.7 27.14A10.96 10.96 0 0 0 54 25.2a10.95 10.95 0 0 0-12.7 1.94A18.93 18.93 0 0 0 54 32c4.88 0 9.33-1.84 12.7-4.86Z" fill="#FF4F6D"/></g><g transform="translate(104 122)"><path fill-rule="evenodd" clip-rule="evenodd" d="M16 8c0 4.42 5.37 8 12 8s12-3.58 12-8" fill="#000" fill-opacity=".16"/></g><g transform="translate(76 90)"><path d="M16.16 22.45c1.85-3.8 6-6.45 10.84-6.45 4.81 0 8.96 2.63 10.82 6.4.55 1.13-.24 2.05-1.03 1.37a15.05 15.05 0 0 0-9.8-3.43c-3.73 0-7.12 1.24-9.55 3.23-.9.73-1.82-.01-1.28-1.12ZM74.16 22.45c1.85-3.8 6-6.45 10.84-6.45 4.81 0 8.96 2.63 10.82 6.4.55 1.13-.24 2.05-1.03 1.37a15.05 15.05 0 0 0-9.8-3.43c-3.74 0-7.13 1.24-9.56 3.23-.9.73-1.82-.01-1.28-1.12Z" fill-rule="evenodd" clip-rule="evenodd" fill="#000" fill-opacity=".6"/></g><g transform="translate(76 82)"><g fill-rule="evenodd" clip-rule="evenodd" fill="#DADADA"><path d="M57 12.82ZM96.12 7.6c1.46.56 9.19 6.43 7.86 9.16a.8.8 0 0 1-1.29.22 10.63 10.63 0 0 0-1.7-1.19c-5.1-2.84-11.3-1.93-16.73-.91-6.12 1.14-12.11 3.48-18.39 2.67-2.04-.26-6.08-1.22-7.63-2.96-.47-.53-.06-1.38.64-1.43 1.44-.11 2.86-.86 4.33-1.28 3.65-1.03 7.4-1.56 11.11-2.29 6.62-1.3 15.17-4.53 21.8-2Z"/><path d="M58.76 12.76c-1.17.04-2.8 3.56-.56 3.68 2.23.11 1.73-3.72.56-3.68ZM55 12.8c0-.01 0-.01 0 0ZM15.88 7.56c-1.46.56-9.19 6.43-7.86 9.16.24.5.89.6 1.29.22.55-.52 1.58-1.11 1.71-1.18 5.1-2.84 11.3-1.93 16.73-.91 6.12 1.14 12.11 3.48 18.39 2.67 2.04-.26 6.08-1.22 7.63-2.96.47-.53.06-1.38-.64-1.43-1.44-.11-2.86-.86-4.33-1.28-3.65-1.03-7.4-1.56-11.11-2.29-6.62-1.3-15.17-4.53-21.8-2Z"/><path d="M54.97 11.79c1.17.04 2.77 4.5.53 4.67-2.24.18-1.7-4.71-.53-4.67Z"/></g></g><g transform="translate(-1)"><g fill="#b58143"><path d="M187.7 56.12c.9 3.25 2.17 11.95-.06 14.84-.75.96-5.84-1.74-7.97-2.92l-3.53-1.96c-14.92-8.32-19.74-11-45.9-10.62-28.11.4-47.37 13.58-48.46 14.93-.75.93-1.71 3.44-2.5 10.41-.25 2.2-.32 4.97-.4 7.71-.14 5.94-.3 11.77-2.25 11.76-2.44-.01-2.97-23.78-1.92-33.21.04-.36.1-.78.18-1.23.23-1.4.5-3.13.16-4.11-.16-.44-.54-.7-.94-.99-.62-.43-1.26-.88-1.08-2.03.21-1.31 1.1-1.43 1.97-1.56.57-.08 1.13-.16 1.5-.56 1.13-1.23.46-1.87-.31-2.6-.46-.43-.95-.9-1.12-1.53-.63-2.36 1.03-3.1 2.69-3.83l.38-.17c.69-.3 1.1-.42 1.42-.5.6-.15.85-.21 1.89-1.35-2.14-1.56-2.9-3.69.01-4.83.56-.22 1.52-.2 2.5-.2 1.2.02 2.4.03 2.94-.37.15-.11.24-.53.33-.9.06-.27.11-.5.18-.6 1.35-1.93 1.23-3.4 1.08-5.4l-.07-.92c-.13-2.04-.11-3.9 2.33-4.11 1-.08 1.9.4 2.77.86.54.29 1.08.58 1.64.73.87.23 1.1.43 1.32.43.19 0 .37-.15.96-.55 1.18-.82 1.3-2.05 1.43-3.3.11-1.08.22-2.18 1.04-3 1.58-1.6 2.8-.64 4 .3.64.5 1.28 1 1.96 1.1 2.55.36 3.06-1.06 3.62-2.59.36-1 .74-2.06 1.74-2.68 1.83-1.15 2.64-.05 3.43 1.01.5.68.98 1.33 1.7 1.39 1.01.08 2.52-1.1 3.85-2.14a11.6 11.6 0 0 1 2.1-1.44c2.27-.93 3.91.07 5.58 1.08 1.4.85 2.83 1.72 4.65 1.43l.83-.13c2.24-.37 3.11-.51 5.45.96a4.2 4.2 0 0 0 3.74.69c.6-.12 1.3-.25 2.26-.26 1.1 0 1.98.5 2.83.99.7.4 1.36.79 2.13.87.42.04.84-.16 1.26-.36.42-.2.84-.4 1.3-.38 1.83.11 2.69 1.5 3.55 2.88.67 1.08 1.34 2.15 2.46 2.66 1.62.72 3.44.24 5.17-.21.79-.2 1.55-.4 2.28-.5 3.96-.46 3.27 1.97 2.55 4.56a11.1 11.1 0 0 0-.6 3.26c1.15.27 2.3-.15 3.46-.57 1.1-.4 2.18-.8 3.27-.6 3.4.58 2.25 4.02 1.44 6.45l-.08.21c.64 0 1.54-.2 2.56-.42 2.86-.6 6.61-1.41 7.78 1.13.47 1.05 0 2.31-.44 3.54a7.17 7.17 0 0 0-.61 2.41c.02 1.53.7 2.9 1.4 4.27.45.91.9 1.82 1.17 2.78Z"/><path d="m186.36 73.6.47.33c1.76.99 3.15 10.9 3.22 14.69.04 2.34.08 11.25-2.4 10.48-.75-.23-1.9-4.95-2.06-7.72-.16-2.76-1.74-12.16-4.14-16.49-.13-.23-.32-.51-.53-.8-.65-.96-1.44-2.12-.92-2.76.72-.88 1.43-.57 2.26-.2l.44.18c.87.35 2.77 1.68 3.66 2.3Z"/></g></g><g transform="translate(49 72)"></g><g transform="translate(62 42)"><path fill-rule="evenodd" clip-rule="evenodd" d="M94.4 4.78c-3.08-3.09-6.28 3.86-7.78 5.65-3.6 4.32-7.08 8.75-10.75 13.02-7.25 8.43-14.43 16.92-21.64 25.4-1.09 1.28-.96 1.41-2.4 1.54-.94.08-2.27-.4-3.26-.46-2.75-.16-5.46.3-8.13.9-5.35 1.17-11.01 3.1-15.65 6.07-1.22.78-2 1.7-3.32 1.94-1.15.21-2.68-.21-3.85-.32-2.08-.2-5.08-1.05-7.12-.6-2.6.55-3.58 3.7-.94 5.08 2.01 1.06 6.01.48 8.26.64 2.58.2 1.8.06 1.43 2.52-.53 3.54.35 7.49 1.84 10.72 3.46 7.5 13.03 15.46 21.77 14.72 7.28-.6 13.67-7.19 16.66-13.5a30.75 30.75 0 0 0 2.73-10.47c.19-2.27.08-4.67-.57-6.87a16.5 16.5 0 0 0-1.37-3.2c-.44-.79-2.4-2.64-2.52-3.44-.23-1.56 4.18-5.73 5.03-6.78 3.97-4.91 7.96-9.8 11.9-14.75 3.88-4.87 7.79-9.73 11.77-14.51 1.8-2.17 10.83-10.37 7.9-13.3" fill="#28354B"/></g></g></g></svg>